<svg width="145" height="114" viewBox="0 0 145 114" xmlns="http://www.w3.org/2000/svg"><title>Group 13</title><g fill="none" fill-rule="evenodd"><g transform="matrix(-1 0 0 1 126.5 3)"><g transform="translate(0 3.791)" fill="#092290"><circle opacity=".1" cx="2.5" cy="2.5" r="2.5"/><circle cx="120" cy="2" r="2"/><circle opacity=".9" cx="107" cy="2" r="2"/><circle opacity=".8" cx="94" cy="2" r="2"/><circle opacity=".7" cx="81" cy="2" r="2"/><circle opacity=".6" cx="68" cy="2" r="2"/><circle opacity=".5" cx="55" cy="2" r="2"/><circle opacity=".4" cx="42" cy="2" r="2"/><circle opacity=".3" cx="29" cy="2" r="2"/><circle opacity=".2" cx="16" cy="2" r="2"/></g><circle fill="#FEF300" cx="120" cy="6" r="6"/></g><path stroke="#092290" stroke-width="1.5" stroke-linecap="round" stroke-linejoin="round" d="M134.965 17.95l8.506-8.465-8.506-8.465"/><g transform="rotate(90 -5.25 13.75)" fill="#092290"><circle opacity=".1" cx="93" cy="2" r="2"/><circle opacity=".2" cx="80" cy="2" r="2"/><circle opacity=".3" cx="67" cy="2" r="2"/><circle opacity=".4" cx="54" cy="2" r="2"/><circle opacity=".5" cx="41" cy="2" r="2"/><circle opacity=".6" cx="28" cy="2" r="2"/><circle opacity=".7" cx="15" cy="2" r="2"/><circle opacity=".8" cx="2" cy="2" r="2"/></g></g></svg>