<svg id="Layer_1" data-name="Layer 1" xmlns="http://www.w3.org/2000/svg" viewBox="0 0 1171.16 229.51"><defs><style>.cls-1{fill:#16151a}.cls-2{fill:none;stroke:#16151a;stroke-miterlimit:10;stroke-width:2px}</style></defs><title>logo</title><path class="cls-1" d="M1183.57 21.63v225.5H16.42V21.63h1167.15m2-2H14.42v229.5h1171.15V19.63z" transform="translate(-14.42 -19.63)"/><path class="cls-1" d="M108.67 109a65.07 65.07 0 0 1 11 .77 13.45 13.45 0 0 1 7.22 3.54q2.87 2.77 2.87 8.43t-2.71 8.4a12.39 12.39 0 0 1-6.83 3.46 61.66 61.66 0 0 1-10.52.73h-4.56v17.35h12.94a1.93 1.93 0 0 1 1.42.51 1.64 1.64 0 0 1 0 2.38 2 2 0 0 1-1.46.49H94.59a2.1 2.1 0 0 1-1.48-.49 1.6 1.6 0 0 1 0-2.38 2 2 0 0 1 1.44-.51h6.8v-39.3H95.1a2 2 0 0 1-1.42-.49 1.56 1.56 0 0 1-.51-1.16 1.63 1.63 0 0 1 .54-1.22 2 2 0 0 1 1.43-.51zm2.44 22.18a46.72 46.72 0 0 0 7.85-.53 9 9 0 0 0 5-2.55c1.32-1.35 2-3.42 2-6.2 0-2.93-.8-5.1-2.38-6.49a10.69 10.69 0 0 0-5.69-2.55 60.71 60.71 0 0 0-8.45-.48h-4.33v18.8zM163.69 151.83a2 2 0 0 1 1.42.48 1.48 1.48 0 0 1 .51 1.14 1.52 1.52 0 0 1-.51 1.12 2 2 0 0 1-1.46.49H148a2.06 2.06 0 0 1-1.47-.49 1.48 1.48 0 0 1-.54-1.12 1.46 1.46 0 0 1 .52-1.14 2 2 0 0 1 1.45-.48h4.92v-39.45H149a2 2 0 0 1-1.43-.49 1.51 1.51 0 0 1-.53-1.16 1.62 1.62 0 0 1 .53-1.22 2 2 0 0 1 1.47-.51h12.59a47.33 47.33 0 0 1 10.46 1 11.81 11.81 0 0 1 6.47 3.7q2.34 2.73 2.34 7.85a10.12 10.12 0 0 1-2.3 6.86 14 14 0 0 1-5.8 4l8 19.5h3.31a3.12 3.12 0 0 1 1.94.46 1.37 1.37 0 0 1 .57 1.12 1.44 1.44 0 0 1-.59 1.18 3 3 0 0 1-1.88.47h-9.25a2.06 2.06 0 0 1-1.47-.49 1.52 1.52 0 0 1-.53-1.16 1.45 1.45 0 0 1 .51-1.1 2 2 0 0 1 1.41-.48h2l-7.08-18.64a17.06 17.06 0 0 1-2.67.35c-1.5.14-2.71.2-3.62.2h-6.89v18.09zm-7.08-39.45v18.33h4.21a49.29 49.29 0 0 0 9-.65 10.12 10.12 0 0 0 5.41-2.59 7.66 7.66 0 0 0 2-5.69c0-2.64-.51-4.64-1.53-6a7.84 7.84 0 0 0-4.8-2.72 46 46 0 0 0-9.2-.71zM220.24 155.06h-13.69a2 2 0 0 1-1.45-.49 1.62 1.62 0 0 1 0-2.38 1.91 1.91 0 0 1 1.41-.51h3.35l15.14-39.3h-8.54a2 2 0 0 1-1.45-.49 1.61 1.61 0 0 1-.51-1.2 1.63 1.63 0 0 1 .51-1.18 1.91 1.91 0 0 1 1.41-.51h11.92c1.52 0 2.58.85 3.19 2.56l14.24 40.12h3.1a1.88 1.88 0 0 1 1.4.49 1.57 1.57 0 0 1 .49 1.16 1.65 1.65 0 0 1-.53 1.22 2 2 0 0 1-1.44.51H234.4a2.06 2.06 0 0 1-1.48-.51 1.65 1.65 0 0 1-.53-1.22 1.56 1.56 0 0 1 .51-1.16 2 2 0 0 1 1.42-.49h7.32l-4.21-12h-19l-4.41 12h6.26a2 2 0 0 1 1.43.51 1.58 1.58 0 0 1 0 2.38 2.06 2.06 0 0 1-1.47.49zm-.51-18.68h16.52l-7.83-23.49zM312.3 155.06h-13.88a2.06 2.06 0 0 1-1.48-.51 1.65 1.65 0 0 1-.53-1.22 1.56 1.56 0 0 1 .51-1.16 2 2 0 0 1 1.42-.49h5.23v-35.25l-10.11 23.29a3.24 3.24 0 0 1-1.1 1.4 2.62 2.62 0 0 1-1.49.49 2.44 2.44 0 0 1-1.38-.42 2.7 2.7 0 0 1-1-1.27L278 116.59v35.09h4.72a2 2 0 0 1 1.46.49 1.56 1.56 0 0 1 .51 1.16 1.65 1.65 0 0 1-.53 1.22 2.06 2.06 0 0 1-1.48.51H269a2 2 0 0 1-1.46-.49 1.64 1.64 0 0 1 0-2.38 1.91 1.91 0 0 1 1.42-.51h5.23v-39.3h-4.68a2 2 0 0 1-1.42-.49 1.56 1.56 0 0 1-.51-1.16 1.65 1.65 0 0 1 .53-1.22 2 2 0 0 1 1.44-.51h7.78a2 2 0 0 1 1.81 1.38L291 136.46l11.41-26.28a1.84 1.84 0 0 1 .67-.85 1.86 1.86 0 0 1 1.1-.33h7.55a2.06 2.06 0 0 1 1.48.51 1.65 1.65 0 0 1 .53 1.22 1.54 1.54 0 0 1-.53 1.16 2 2 0 0 1-1.44.49h-4.45v39.3h5a1.9 1.9 0 0 1 1.4.49 1.61 1.61 0 0 1 .49 1.16 1.65 1.65 0 0 1-.53 1.22 2 2 0 0 1-1.38.51zM346.78 155.06h-13.69a2 2 0 0 1-1.45-.49 1.64 1.64 0 0 1 0-2.38 1.91 1.91 0 0 1 1.41-.51h3.35l15.14-39.3H343a2 2 0 0 1-1.46-.49 1.61 1.61 0 0 1-.51-1.2 1.63 1.63 0 0 1 .51-1.18A1.91 1.91 0 0 1 343 109h11.91a3.27 3.27 0 0 1 3.19 2.56l14.24 40.12h3.11a1.87 1.87 0 0 1 1.39.49 1.57 1.57 0 0 1 .49 1.16 1.62 1.62 0 0 1-.53 1.22 2 2 0 0 1-1.43.51h-14.4a2 2 0 0 1-1.47-.51 1.63 1.63 0 0 1-.54-1.22 1.57 1.57 0 0 1 .52-1.16 1.94 1.94 0 0 1 1.41-.49h7.32l-4.21-12h-19l-4.4 12h6.25a2 2 0 0 1 1.44.51 1.6 1.6 0 0 1 0 2.38 2.1 2.1 0 0 1-1.51.49zm-.51-18.68h16.52L355 112.89zM397.59 112.38h-6.13a2 2 0 0 1-1.42-.49 1.56 1.56 0 0 1-.51-1.16 1.65 1.65 0 0 1 .53-1.22 2 2 0 0 1 1.43-.51h11.29a1.86 1.86 0 0 1 1 .22 1.62 1.62 0 0 1 .59.72l19.11 37.49v-35.05h-5.86a1.94 1.94 0 0 1-1.41-.49 1.53 1.53 0 0 1-.52-1.16 1.65 1.65 0 0 1 .53-1.22 2.06 2.06 0 0 1 1.48-.51h13.25a2 2 0 0 1 1.44.51 1.65 1.65 0 0 1 .53 1.22 1.57 1.57 0 0 1-.49 1.16 1.88 1.88 0 0 1-1.4.49h-3.77v40.83a2.78 2.78 0 0 1-.55 1.85 1.76 1.76 0 0 1-1.38.63 2.22 2.22 0 0 1-1.24-.4 2.59 2.59 0 0 1-1-1.1l-21.75-41.77v39.26h5.42a1.91 1.91 0 0 1 1.42.51 1.64 1.64 0 0 1 0 2.38 2 2 0 0 1-1.46.49h-14.05a2 2 0 0 1-1.45-.49 1.64 1.64 0 0 1 0-2.38 1.91 1.91 0 0 1 1.41-.51h5zM460.44 155.06h-13.69a2 2 0 0 1-1.46-.49 1.64 1.64 0 0 1 0-2.38 1.93 1.93 0 0 1 1.42-.51h3.34l15.15-39.3h-8.54a2 2 0 0 1-1.46-.49 1.61 1.61 0 0 1-.51-1.2 1.63 1.63 0 0 1 .51-1.18 1.93 1.93 0 0 1 1.42-.51h11.92c1.52 0 2.58.85 3.18 2.56L486 151.68h3.11a1.9 1.9 0 0 1 1.4.49 1.61 1.61 0 0 1 .49 1.16 1.65 1.65 0 0 1-.53 1.22 2 2 0 0 1-1.44.51H474.6a2 2 0 0 1-1.48-.51 1.65 1.65 0 0 1-.53-1.22 1.56 1.56 0 0 1 .51-1.16 2 2 0 0 1 1.42-.49h7.31l-4.21-12h-19l-4.41 12h6.25a2 2 0 0 1 1.44.51 1.6 1.6 0 0 1 0 2.38 2.06 2.06 0 0 1-1.46.49zm-.52-18.68h16.52l-7.82-23.49zM616.44 141.57a.76.76 0 0 1 0 .27 17.88 17.88 0 0 1-3.11 6.71 17.41 17.41 0 0 1-6.27 5.17 20.4 20.4 0 0 1-9.35 2 19.91 19.91 0 0 1-10.85-3 20.57 20.57 0 0 1-7.53-8.6 28.84 28.84 0 0 1-2.74-12.92 25 25 0 0 1 2.74-11.87 20 20 0 0 1 7.53-8.07 20.69 20.69 0 0 1 10.82-2.87 19.35 19.35 0 0 1 5.86.89 16.68 16.68 0 0 1 4.89 2.42 10.62 10.62 0 0 1 3.17 3.46V111a1.88 1.88 0 0 1 .57-1.44 1.93 1.93 0 0 1 3.28 1.48v11.52a1.74 1.74 0 0 1-.53 1.38 1.87 1.87 0 0 1-1.28.47 1.67 1.67 0 0 1-1.21-.49 2.34 2.34 0 0 1-.67-1.36 12.4 12.4 0 0 0-2.58-5.62 13.57 13.57 0 0 0-4.94-3.8 15.28 15.28 0 0 0-6.45-1.36 16.74 16.74 0 0 0-9.24 2.52 16.52 16.52 0 0 0-6.06 7 23.63 23.63 0 0 0-2.12 10.19 24.53 24.53 0 0 0 2.38 11.15 17.69 17.69 0 0 0 6.35 7.24 16 16 0 0 0 8.65 2.49 14.79 14.79 0 0 0 9.44-3 16.29 16.29 0 0 0 5.47-8.38 1.53 1.53 0 0 1 1.57-1.1 2.46 2.46 0 0 1 1.54.53 1.5 1.5 0 0 1 .67 1.15zM671.1 132.17a29.08 29.08 0 0 1-2.3 11.52 20.47 20.47 0 0 1-6.86 8.71 19.75 19.75 0 0 1-22 0 20.47 20.47 0 0 1-6.86-8.71 28.9 28.9 0 0 1-2.3-11.52 29.42 29.42 0 0 1 2.3-11.59 20.88 20.88 0 0 1 6.86-8.83 19.51 19.51 0 0 1 22 0 20.88 20.88 0 0 1 6.86 8.83 29.6 29.6 0 0 1 2.3 11.59zm-3.77 0a26.25 26.25 0 0 0-1.89-10 17.81 17.81 0 0 0-5.59-7.55 15.06 15.06 0 0 0-17.77 0 17.81 17.81 0 0 0-5.59 7.55 27.19 27.19 0 0 0 0 19.82 17.3 17.3 0 0 0 5.55 7.47 15.53 15.53 0 0 0 17.93 0 17.3 17.3 0 0 0 5.55-7.47 26.3 26.3 0 0 0 1.81-9.82zM686.75 109h18.61a2 2 0 0 1 1.47.51 1.65 1.65 0 0 1 .53 1.22 1.54 1.54 0 0 1-.53 1.16 2 2 0 0 1-1.43.49h-6v39.3h18a2.43 2.43 0 0 0 1.14-.36 1.44 1.44 0 0 0 .47-1.1l1.34-10.85a1.84 1.84 0 0 1 .67-1.26 2.16 2.16 0 0 1 2.71.08 1.74 1.74 0 0 1 .59 1.41v.24l-1.18 12.62a3.16 3.16 0 0 1-.88 1.87 2.63 2.63 0 0 1-2 .73H685.1a2.1 2.1 0 0 1-1.48-.49 1.6 1.6 0 0 1 0-2.38 2 2 0 0 1 1.44-.51h10.58v-39.3h-8.93a1.94 1.94 0 0 1-1.41-.49 1.56 1.56 0 0 1-.51-1.16 1.62 1.62 0 0 1 .53-1.22 2 2 0 0 1 1.43-.51zM745.19 109h18.6a2 2 0 0 1 1.48.51 1.65 1.65 0 0 1 .53 1.22 1.54 1.54 0 0 1-.53 1.16 2 2 0 0 1-1.44.49h-6v39.3h18a2.43 2.43 0 0 0 1.14-.36 1.44 1.44 0 0 0 .47-1.1l1.34-10.85a1.84 1.84 0 0 1 .67-1.26 2.16 2.16 0 0 1 2.71.08 1.74 1.74 0 0 1 .59 1.41v.24l-1.18 12.62a3.16 3.16 0 0 1-.88 1.87 2.63 2.63 0 0 1-2 .73h-35.2a2.1 2.1 0 0 1-1.48-.49 1.6 1.6 0 0 1 0-2.38 2 2 0 0 1 1.44-.51h10.58v-39.3h-8.93a2 2 0 0 1-1.42-.49 1.56 1.56 0 0 1-.51-1.16 1.65 1.65 0 0 1 .53-1.22 2 2 0 0 1 1.49-.51zM830 124.42v13.45a2.27 2.27 0 0 1-.43 1.5 1.34 1.34 0 0 1-1.06.51 1.49 1.49 0 0 1-1.07-.46 1.78 1.78 0 0 1-.51-1.23l-.51-5.83h-12.84v19.36h24.19l.63-9.88a1.49 1.49 0 0 1 .55-1.1 1.75 1.75 0 0 1 1.18-.43 1.56 1.56 0 0 1 1.16.53 2.13 2.13 0 0 1 .49 1.51V153a2 2 0 0 1-.61 1.54 2.28 2.28 0 0 1-1.59.55h-36.42a2.06 2.06 0 0 1-1.48-.51 1.61 1.61 0 0 1-.53-1.18 1.54 1.54 0 0 1 .53-1.16 2 2 0 0 1 1.44-.49h6.68v-39.37h-5.31a1.86 1.86 0 0 1-1.39-.49 1.57 1.57 0 0 1-.49-1.16 1.62 1.62 0 0 1 .53-1.22 2 2 0 0 1 1.43-.51h34.54a2.25 2.25 0 0 1 1.59.57 2 2 0 0 1 .61 1.55v10.62a1.71 1.71 0 0 1-.47 1.28 1.58 1.58 0 0 1-1.1.46 1.79 1.79 0 0 1-1.13-.4 1.47 1.47 0 0 1-.53-1.1l-.55-9.6h-23.95v17h12.82l.51-5.24a2.06 2.06 0 0 1 .53-1.29 1.41 1.41 0 0 1 1-.48 1.31 1.31 0 0 1 1.06.54 2.39 2.39 0 0 1 .5 1.51zM900.57 141.57a.58.58 0 0 1 0 .27 17.85 17.85 0 0 1-3.1 6.71 17.36 17.36 0 0 1-6.28 5.17 20.35 20.35 0 0 1-9.34 2 19.86 19.86 0 0 1-10.85-3 20.66 20.66 0 0 1-7.54-8.6 29 29 0 0 1-2.73-12.92 25.13 25.13 0 0 1 2.73-11.87 20.13 20.13 0 0 1 7.54-8.07 20.65 20.65 0 0 1 10.81-2.87 19.25 19.25 0 0 1 5.86.89 16.74 16.74 0 0 1 4.9 2.42 10.73 10.73 0 0 1 3.17 3.46V111a1.84 1.84 0 0 1 .57-1.44 1.93 1.93 0 0 1 3.28 1.48v11.52a1.78 1.78 0 0 1-.53 1.38 1.87 1.87 0 0 1-1.28.47 1.69 1.69 0 0 1-1.22-.49 2.47 2.47 0 0 1-.67-1.36 12.28 12.28 0 0 0-2.57-5.62 13.65 13.65 0 0 0-4.94-3.8 15.34 15.34 0 0 0-6.45-1.36 16.74 16.74 0 0 0-9.24 2.52 16.45 16.45 0 0 0-6.06 7 23.48 23.48 0 0 0-2.12 10.19 24.66 24.66 0 0 0 2.37 11.15 17.71 17.71 0 0 0 6.36 7.24 16 16 0 0 0 8.65 2.49 14.81 14.81 0 0 0 9.44-3 16.35 16.35 0 0 0 5.47-8.38 1.53 1.53 0 0 1 1.57-1.1 2.45 2.45 0 0 1 1.53.53 1.47 1.47 0 0 1 .67 1.15zM924.28 112.38l-.47 10.62a1.9 1.9 0 0 1-.51 1.32 1.57 1.57 0 0 1-1.11.45 1.87 1.87 0 0 1-1.33-.57 2 2 0 0 1-.59-1.55v-11.53a2.75 2.75 0 0 1 .37-1.61 1.49 1.49 0 0 1 1.28-.51h36a1.38 1.38 0 0 1 1.2.53 2.79 2.79 0 0 1 .37 1.59v11.57a2.06 2.06 0 0 1-.53 1.51 1.79 1.79 0 0 1-2.46.08 1.7 1.7 0 0 1-.5-1.28l-.39-10.66h-13.87v39.3h9.52a2 2 0 0 1 1.42.49 1.56 1.56 0 0 1 .51 1.16 1.65 1.65 0 0 1-.53 1.22 2.06 2.06 0 0 1-1.48.51h-22.65a2.13 2.13 0 0 1-1.5-.51 1.64 1.64 0 0 1-.55-1.22 1.54 1.54 0 0 1 .53-1.16 2 2 0 0 1 1.44-.49H938v-39.3zM1005.07 155.06h-27a2.06 2.06 0 0 1-1.47-.49 1.6 1.6 0 0 1 0-2.38 2 2 0 0 1 1.43-.51h12v-39.3h-12a2 2 0 0 1-1.43-.49 1.51 1.51 0 0 1-.53-1.16 1.62 1.62 0 0 1 .53-1.22 2 2 0 0 1 1.47-.51h27a2 2 0 0 1 1.43.51 1.62 1.62 0 0 1 .53 1.22 1.56 1.56 0 0 1-.51 1.16 1.94 1.94 0 0 1-1.41.49h-11.25v39.3h11.25a1.91 1.91 0 0 1 1.41.51 1.64 1.64 0 0 1 0 2.38 2 2 0 0 1-1.45.49zM1048.84 109h12a2 2 0 0 1 1.45.49 1.64 1.64 0 0 1 0 2.38 1.91 1.91 0 0 1-1.41.51h-3.38l-12.5 41.89a5.92 5.92 0 0 1-1 1.71 2 2 0 0 1-1.47.49 2.15 2.15 0 0 1-1.57-.57 3.93 3.93 0 0 1-1-1.63l-13.45-41.89h-4.09a1.9 1.9 0 0 1-1.4-.49 1.57 1.57 0 0 1-.49-1.16 1.65 1.65 0 0 1 .53-1.22 2 2 0 0 1 1.44-.51h13.37a2.08 2.08 0 0 1 1.46.49 1.64 1.64 0 0 1 0 2.38 2 2 0 0 1-1.42.51h-5.15l11.92 38 10.81-38h-4.72a2 2 0 0 1-1.43-.51 1.58 1.58 0 0 1 0-2.38 2.1 2.1 0 0 1 1.5-.49zM1102.84 124.42v13.45a2.33 2.33 0 0 1-.43 1.5 1.36 1.36 0 0 1-1.07.51 1.48 1.48 0 0 1-1.06-.46 1.78 1.78 0 0 1-.51-1.23l-.51-5.83h-12.82v19.36h24.19l.63-9.88a1.49 1.49 0 0 1 .55-1.1 1.75 1.75 0 0 1 1.18-.43 1.56 1.56 0 0 1 1.16.53 2.18 2.18 0 0 1 .49 1.51V153a2 2 0 0 1-.61 1.54 2.28 2.28 0 0 1-1.59.55H1076a2 2 0 0 1-1.47-.51 1.61 1.61 0 0 1-.53-1.18 1.54 1.54 0 0 1 .53-1.16 2 2 0 0 1 1.44-.49h6.68v-39.37h-5.31a1.86 1.86 0 0 1-1.39-.49 1.58 1.58 0 0 1-.5-1.16 1.63 1.63 0 0 1 .54-1.22 2 2 0 0 1 1.43-.51H1112a2.25 2.25 0 0 1 1.6.57 2 2 0 0 1 .61 1.55v10.62a1.71 1.71 0 0 1-.47 1.28 1.58 1.58 0 0 1-1.11.46 1.77 1.77 0 0 1-1.12-.4 1.44 1.44 0 0 1-.53-1.1l-.55-9.6h-24v17h12.82l.51-5.24a2.06 2.06 0 0 1 .53-1.29 1.39 1.39 0 0 1 1-.48 1.33 1.33 0 0 1 1.07.54 2.45 2.45 0 0 1 .48 1.51z" transform="translate(-14.42 -19.63)"/><circle class="cls-2" cx="518.86" cy="111.62" r="5.96"/></svg>