<svg width="262" height="14" viewBox="0 0 262 14" fill="none" xmlns="http://www.w3.org/2000/svg"><path fill-rule="evenodd" clip-rule="evenodd" d="M127.592 1.128c-2.835 1.053-4.214 4.307-3.272 7.722.464 1.684 1.559 3.042 2.99 3.709.617.287.879.329 2.114.334 1.33.005 1.455-.017 2.241-.404.458-.226.953-.517 1.1-.647.915-.808 1.724-2.49 1.322-2.745-.451-.287-.703-.133-1.014.62-.413.998-1.28 1.855-2.184 2.156-3.254 1.086-6.081-1.543-5.849-5.44.08-1.335.208-1.795.763-2.722.49-.822 1.433-1.581 2.263-1.823.761-.222 2.13-.218 2.703.008 1.14.452 1.905 1.257 2.216 2.335.147.508.205.57.543.57h.379l.036-1.718c.037-1.786-.032-2.074-.496-2.074-.301 0-.501.375-.501.938v.442l-.442-.419c-.801-.758-1.516-1.014-2.952-1.057-1.025-.03-1.417.013-1.96.215zm13.646.056c-2.04.862-3.141 2.667-3.264 5.354-.13 2.811.979 5.02 3.002 5.98 1.032.49 2.613.584 3.648.216 2.198-.781 3.405-2.636 3.534-5.428.127-2.767-.873-4.874-2.809-5.916-.741-.4-.919-.44-2.091-.477-1.123-.036-1.372-.003-2.02.271zm59.044.004c-1.39.586-2.147 1.273-2.778 2.52-.453.895-.635 1.76-.637 3.026-.004 3.729 2.158 6.229 5.389 6.229 1.928 0 3.526-.903 4.319-2.441.512-.991.509-1.46-.009-1.52-.32-.037-.386.028-.665.662-.98 2.223-3.329 3.074-5.533 2.004-1.967-.956-3.028-3.767-2.412-6.39.369-1.571 1.168-2.609 2.478-3.218.587-.274.916-.338 1.748-.34 1.774-.005 2.958.8 3.546 2.413.245.67.305.741.605.707l.332-.04V1.074h-.384c-.374 0-.385.019-.423.684l-.039.683-.522-.473c-.845-.766-1.519-1.003-2.987-1.052-1.129-.038-1.369-.006-2.028.273zm-199.991 0c-.173.451.033.58.999.618l.935.038.033 5.046.034 5.045h-1.01c-1.134 0-1.429.16-1.175.634.137.257.239.265 3.387.265 2.806 0 3.27-.027 3.415-.203.122-.148.131-.263.034-.418-.113-.18-.42-.22-1.95-.25l-1.814-.035.035-2.214L3.25 7.5l2.01-.077c1.848-.072 2.068-.106 2.729-.43.461-.228.829-.522 1.026-.823.876-1.337.636-3.455-.488-4.316-.892-.682-1.305-.752-4.859-.815C.721.987.361 1.003.291 1.188zm13.796-.003c-.284.343-.027.58.67.62l.662.04.033 5.045.033 5.045h-.681c-.823 0-1.252.25-1.037.603.126.206.377.236 2.242.269 2.37.041 2.676.001 2.676-.353 0-.373-.23-.455-1.281-.455h-.96l-.036-2.346-.035-2.346h1.53c.841 0 1.61-.03 1.707-.068.13-.05.406.538 1.037 2.217.473 1.257.86 2.358.858 2.447-.001.092-.166.16-.39.16-.438 0-.624.285-.38.58.123.149.477.191 1.584.19 1.516-.003 1.798-.078 1.725-.464-.036-.19-.191-.255-.737-.306L22.615 12l-1.003-2.442c-.552-1.344-1.004-2.479-1.004-2.523-.001-.045.17-.152.38-.24.524-.217 1.344-1.142 1.539-1.734.21-.64.1-1.808-.232-2.462-.354-.697-1.08-1.17-2.147-1.396-1.223-.26-5.85-.273-6.061-.017zm17.293 0a.43.43 0 0 0-.066.386c.066.174.296.209 1.356.209 1.157 0 1.269.021 1.204.225-.04.124-.904 2.394-1.92 5.045l-1.847 4.82-.577.04c-.688.045-.937.27-.73.66.134.25.252.264 2.113.264 1.621 0 2.008-.035 2.173-.201.152-.152.169-.263.069-.45-.112-.21-.275-.248-1.072-.248h-.939l.546-1.51.547-1.511H37.159l.497 1.414c.273.778.498 1.455.498 1.505 0 .05-.468.108-1.042.129-.806.029-1.074.086-1.177.251-.098.155-.088.27.034.418.248.3 4.12.302 4.419.002.39-.391.116-.697-.625-.7l-.519-.002-1.841-5.236c-1.013-2.88-1.93-5.337-2.038-5.461-.169-.195-.442-.225-2.017-.225-1.389 0-1.857.042-1.968.176zm13.582-.004c-.308.371-.035.585.795.625l.789.038.033 5.04.034 5.039-.853.038c-.941.042-1.277.278-.953.67.14.17.493.203 2.107.202 1.066-.002 2.014-.052 2.109-.111.094-.06.152-.247.128-.416-.04-.281-.11-.31-.844-.345l-.8-.039.003-4.46c.003-2.936.047-4.388.128-4.248.068.117.676 1.448 1.35 2.957 1.262 2.821 1.477 3.193 1.849 3.193.383 0 .617-.417 1.918-3.416L54.033 3l.003 4.46.003 4.461-.787.039c-.875.042-1.202.29-.887.67.248.3 3.992.302 4.29.002.153-.152.17-.263.07-.45-.109-.203-.273-.248-.897-.248h-.764V1.78h.689c.785 0 1.13-.238.845-.583-.131-.158-.418-.19-1.446-.16l-1.283.036-1.483 3.433c-.816 1.888-1.524 3.392-1.573 3.342-.05-.05-.773-1.595-1.607-3.433l-1.517-3.342-1.289-.036c-.986-.028-1.324.006-1.438.144zm18.826.004a.43.43 0 0 0-.066.386c.066.174.296.209 1.356.209 1.261 0 1.275.003 1.185.287-.05.157-.912 2.428-1.915 5.045l-1.824 4.758-.6.072c-.658.078-.891.299-.698.66.111.21.328.232 2.153.232 1.696 0 2.057-.033 2.198-.203.122-.147.131-.263.034-.418-.1-.16-.363-.223-1.05-.252-.503-.02-.915-.078-.916-.128 0-.05.237-.743.528-1.54l.528-1.449 2.44.035 2.439.035.485 1.35c.267.742.488 1.42.492 1.505.004.106-.322.167-1.037.193-.806.029-1.073.086-1.177.251-.097.155-.088.27.034.418.25.303 4.25.303 4.501 0 .268-.324-.014-.622-.658-.696l-.558-.065-1.815-5.141c-.997-2.828-1.91-5.272-2.028-5.431-.204-.276-.294-.29-2.05-.29-1.4 0-1.87.043-1.981.177zm12.428-.003a.435.435 0 0 0-.069.389c.064.167.27.209 1.027.209h.947V11.935h-.63c-.346 0-.72.035-.832.078-.263.1-.263.642 0 .744.31.119 3.937.088 4.131-.035.095-.06.152-.247.128-.416-.04-.284-.106-.31-.907-.345l-.865-.038V6.948c0-4.854.007-4.966.232-4.59.128.213 1.407 2.658 2.844 5.435 2.18 4.215 2.664 5.063 2.926 5.129.647.163.659.057.659-5.768V1.78h.633c.683 0 .839-.114.71-.518-.078-.248-.173-.258-2.153-.224l-2.072.035v.321c0 .31.033.323.928.36l.93.037-.003 4.526-.002 4.525-2.481-4.884-2.481-4.885-1.726-.036c-1.356-.028-1.757.003-1.874.145zm16.683.02c-.185.482.03.578 1.294.578.672 0 1.223.043 1.225.096.002.053-.848 2.337-1.89 5.075l-1.893 4.979-.47.002c-.258.002-.56.038-.672.08-.263.102-.263.643 0 .745.111.042 1.056.078 2.098.078 1.573 0 1.924-.035 2.064-.204.121-.147.13-.263.034-.418-.101-.16-.364-.223-1.061-.252-.653-.027-.911-.084-.874-.193.029-.085.277-.778.551-1.54l.5-1.384 2.435.035 2.436.035.528 1.478.529 1.479-1.059.037c-1.176.04-1.462.197-1.215.661.135.252.251.265 2.235.265 1.754 0 2.121-.032 2.262-.203.267-.323-.013-.626-.619-.671-.345-.026-.549-.113-.606-.257-.047-.12-.865-2.416-1.818-5.103-1.784-5.03-1.902-5.333-2.141-5.493-.078-.052-.964-.095-1.97-.096-1.51-.002-1.843.032-1.903.19zm58.924 0c-.182.475.029.568 1.389.606l1.318.036.034 5.046.033 5.045h-1.465c-1.161 0-1.507.042-1.667.201-.151.153-.168.263-.068.45.127.239.32.248 4.911.248 4.601 0 4.788-.009 5.009-.254.177-.196.27-.677.402-2.079.179-1.907.14-2.165-.336-2.165-.384 0-.489.279-.693 1.843-.109.833-.232 1.57-.272 1.636-.042.067-1.134.12-2.501.12h-2.426V1.78h.965c1.017 0 1.295-.169.955-.58-.236-.286-5.479-.285-5.588.002zm14.987 0c-.187.487.026.578 1.359.578h1.284v10.147l-1.491.036c-1.227.03-1.515.074-1.626.25-.097.155-.088.27.034.418.148.179.743.204 4.937.204 4.46 0 4.781-.016 4.98-.236.154-.17.261-.729.389-2.022.097-.983.149-1.858.116-1.945-.097-.254-.559-.342-.756-.144-.103.103-.262.822-.378 1.709-.11.842-.228 1.577-.263 1.634-.036.057-1.156.104-2.491.104h-2.426V1.78h.947c.757 0 .963-.042 1.027-.21.194-.506-.092-.561-2.89-.561-2.263 0-2.69.03-2.752.193zm15.21-.017c-.312.378-.029.582.863.622l.853.037.034 5.046.033 5.045-.93.002c-1.067.002-1.29.097-1.23.526l.044.307 4.953.034c4.376.03 4.976.01 5.156-.17.295-.296.296-3.158.001-3.454-.477-.478-.662-.13-.77 1.44l-.09 1.315h-6.246l.035-2.475.035-2.474 1.621-.036 1.62-.036.109.936c.102.883.126.935.429.935h.32V4.544h-.32c-.299 0-.328.057-.432.871l-.112.871-1.617-.035-1.618-.036V1.844l3.025-.034 3.025-.035.08.485c.044.266.08.834.081 1.263.002.92.235 1.36.602 1.135.2-.122.237-.36.268-1.717.024-1.05-.013-1.634-.112-1.753-.217-.264-9.492-.266-9.71-.003zm30.176-.092c-.048.048-.087.918-.087 1.934 0 1.59.029 1.857.21 1.927.484.186.619-.12.703-1.58.044-.77.087-1.445.096-1.498.009-.053.794-.096 1.745-.096h1.73v10.146l-1.364.037c-1.106.03-1.388.076-1.498.25-.097.155-.087.27.035.418.145.175.593.203 3.259.202 1.7-.002 3.167-.052 3.262-.111.094-.06.151-.247.128-.416-.042-.3-.079-.308-1.421-.343l-1.377-.037V1.78h1.716c1.446 0 1.728.032 1.793.203.043.112.078.766.078 1.453 0 1.287.093 1.558.536 1.558.324 0 .376-.351.334-2.25l-.037-1.67-4.877-.035c-2.682-.018-4.916.006-4.964.054zm14.275.09a.433.433 0 0 0-.068.388c.069.179.33.209 1.796.209h1.716V11.935h-1.65c-1.803 0-2.097.103-1.813.634.138.259.234.265 3.836.265 3.214 0 3.716-.026 3.863-.203.122-.148.131-.263.034-.418-.112-.177-.404-.22-1.69-.25l-1.556-.036V1.787l1.634-.035 1.633-.036v-.642l-3.794-.035c-3.11-.028-3.82-.002-3.941.144zm11.399.002c-.291.352-.027.58.717.621l.707.038.636 1.993c2.85 8.918 2.925 9.133 3.255 9.284.267.121.358.105.559-.103.15-.154.829-2.232 1.802-5.518.859-2.899 1.615-5.371 1.68-5.495.085-.162.276-.225.677-.225.601 0 .849-.26.569-.598-.117-.142-.54-.172-2.019-.144l-1.871.035v.321c0 .305.041.324.813.36.694.033.805.071.755.257-.634 2.32-2.704 9.534-2.728 9.509-.054-.057-3.004-9.516-3.004-9.633 0-.059.369-.107.819-.107.639 0 .837-.046.899-.21.184-.48-.128-.561-2.166-.561-1.5 0-1.988.04-2.1.176zm14.078.015c-.317.383-.058.566.857.606l.871.038.034 5.046.033 5.045h-.937c-1.081 0-1.533.21-1.293.603.132.217.473.235 5.044.266 3.513.024 4.953-.008 5.078-.112.27-.225.25-3.363-.023-3.59-.164-.137-.235-.13-.404.04-.15.15-.221.548-.266 1.499l-.062 1.294h-6.243V6.922h1.605c1.174 0 1.618.043 1.653.16.026.089.096.508.156.931.085.602.161.78.349.816.133.026.291-.032.351-.127.124-.197.155-3.707.035-4.02-.098-.258-.547-.264-.645-.009-.04.107-.11.497-.156.868l-.081.674-1.634.036-1.633.036V1.78h6.112l.082.79c.046.435.083 1.03.083 1.324 0 .755.303 1.034.695.64.159-.159.201-.501.201-1.615 0-.777-.059-1.525-.132-1.662-.128-.238-.317-.248-4.852-.248-4.021 0-4.743.028-4.878.19zm-107.324.805c.861.382 1.462.987 1.947 1.961 1.372 2.752.623 6.39-1.569 7.625-.95.535-2.307.624-3.371.221-2.327-.881-3.403-4.357-2.28-7.368.854-2.291 3.181-3.368 5.273-2.44zm-137.62.101c1.014.302 1.561 1.069 1.561 2.186 0 .918-.327 1.557-1 1.952-.547.322-.706.348-2.482.398l-1.898.054V4.324c0-1.305.044-2.418.096-2.473.145-.15 3.025.047 3.724.255zm12.311-.191c1.253.157 1.723.369 2.06.923.71 1.174.335 2.717-.801 3.295-.531.27-.838.318-2.402.374l-1.793.065v-2.31c0-1.271.039-2.35.086-2.396.128-.13 1.64-.103 2.85.049zm49.837 6.003c.002.122-.491.16-2.047.16-1.127 0-2.05-.038-2.05-.086 0-.074 1.733-4.814 2.083-5.698.11-.28.25.056 1.07 2.571.517 1.59.942 2.965.944 3.053zm29.12.064c-.03.053-.942.097-2.025.097-1.084 0-1.995-.044-2.025-.097-.03-.053.44-1.423 1.041-3.045L96.36 1.99l.983 2.948c.541 1.622.96 2.992.93 3.045zM35.82 4.964c.51 1.54.926 2.87.926 2.957 0 .118-.517.158-2.05.158-1.126 0-2.05-.044-2.05-.097-.002-.182 2.107-5.816 2.177-5.816.039 0 .487 1.26.997 2.799zm76.585.033c-1.034.311-1.515 1.486-1.029 2.514.415.879 1.6 1.219 2.445.702 1.228-.752 1.152-2.457-.137-3.083-.59-.287-.722-.3-1.279-.133zm1.087.583c.221.115.469.397.576.654.53 1.271-1.039 2.316-2.011 1.34-.612-.613-.438-1.68.327-2.015.507-.222.644-.22 1.108.021z" fill="#fff" stroke="#fff" stroke-width="4" mask="url(#path-1-inside-1)"/></svg>