<svg fill="none" height="69" viewBox="0 0 119 69" width="119" xmlns="http://www.w3.org/2000/svg"><g stroke="#5f6474" stroke-width="2"><path d="m18 59.5c0 4.6944-3.8056 8.5-8.5 8.5-4.69442 0-8.5-3.8056-8.5-8.5s3.80558-8.5 8.5-8.5c4.6944 0 8.5 3.8056 8.5 8.5z" fill="#5f6474"/><path d="m68 9.5c0 4.6944-3.8056 8.5-8.5 8.5s-8.5-3.8056-8.5-8.5c0-4.69442 3.8056-8.5 8.5-8.5s8.5 3.80558 8.5 8.5z" fill="#5f6474"/><path d="m118 59.5c0 4.6944-3.806 8.5-8.5 8.5s-8.5-3.8056-8.5-8.5 3.806-8.5 8.5-8.5 8.5 3.8056 8.5 8.5z"/></g></svg>