<svg width="262" height="14" viewBox="0 0 262 14" fill="none" xmlns="http://www.w3.org/2000/svg">
<path fill-rule="evenodd" clip-rule="evenodd" d="M127.592 1.1277C124.757 2.1807 123.378 5.43508 124.32 8.84976C124.784 10.5343 125.879 11.8919 127.31 12.5588C127.927 12.8462 128.189 12.8877 129.424 12.8929C130.754 12.8984 130.879 12.876 131.665 12.4887C132.123 12.2633 132.618 11.9724 132.765 11.8423C133.68 11.0342 134.489 9.35222 134.087 9.09668C133.636 8.80991 133.384 8.96416 133.073 9.71676C132.66 10.7147 131.793 11.5717 130.889 11.8732C127.635 12.9588 124.808 10.3298 125.04 6.4332C125.12 5.09818 125.248 4.63826 125.803 3.71084C126.293 2.88908 127.236 2.12992 128.066 1.88775C128.827 1.66564 130.196 1.67001 130.769 1.89624C131.909 2.34755 132.674 3.15324 132.985 4.2313C133.132 4.7393 133.19 4.80074 133.528 4.80074H133.907L133.943 3.08318C133.98 1.29711 133.911 1.0088 133.447 1.0088C133.146 1.0088 132.946 1.38388 132.946 1.9474V2.38881L132.504 1.97041C131.703 1.21176 130.988 0.955966 129.552 0.91342C128.527 0.882956 128.135 0.925889 127.592 1.1277ZM141.238 1.18413C139.198 2.04586 138.097 3.85056 137.974 6.53757C137.844 9.34913 138.953 11.5587 140.976 12.5188C142.008 13.0087 143.589 13.1017 144.624 12.7337C146.822 11.953 148.029 10.0979 148.158 7.30573C148.285 4.5389 147.285 2.43238 145.349 1.38953C144.608 0.990416 144.43 0.949926 143.258 0.912649C142.135 0.876915 141.886 0.910463 141.238 1.18413ZM200.282 1.1876C198.892 1.77438 198.135 2.46079 197.504 3.70814C197.051 4.6033 196.869 5.46722 196.867 6.73398C196.863 10.4629 199.025 12.963 202.256 12.963C204.184 12.963 205.782 12.0604 206.575 10.5218C207.087 9.53076 207.084 9.06133 206.566 9.00156C206.246 8.96467 206.18 9.03023 205.901 9.66367C204.921 11.8874 202.572 12.7382 200.368 11.6677C198.401 10.7123 197.34 7.90087 197.956 5.27878C198.325 3.70686 199.124 2.66941 200.434 2.05974C201.021 1.78634 201.35 1.72245 202.182 1.72001C203.956 1.71474 205.14 2.52005 205.728 4.13258C205.973 4.80344 206.033 4.87439 206.333 4.83956L206.665 4.80074V2.9369V1.07307H206.281C205.907 1.07307 205.896 1.09158 205.858 1.75652L205.819 2.43996L205.297 1.96694C204.452 1.20135 203.778 0.963935 202.31 0.914833C201.181 0.877042 200.941 0.909307 200.282 1.1876ZM0.290739 1.1876C0.118066 1.63942 0.32443 1.76731 1.28963 1.80639L2.2246 1.84431L2.25816 6.88952L2.29159 11.9347H1.28105C0.148426 11.9347 -0.146707 12.0941 0.106667 12.5692C0.243857 12.8265 0.345693 12.8345 3.49441 12.8345C6.29996 12.8345 6.76354 12.8069 6.90906 12.6309C7.03113 12.4833 7.04036 12.3684 6.943 12.2131C6.82964 12.0327 6.52298 11.9933 4.9939 11.9633L3.1793 11.9277L3.2144 9.7138L3.24936 7.50008L5.25919 7.42257C7.10671 7.35123 7.32703 7.31653 7.98775 6.99209C8.44941 6.76548 8.81653 6.47137 9.01393 6.16995C9.88959 4.83326 9.64992 2.71466 8.52575 1.85434C7.63382 1.17166 7.22097 1.10238 3.66696 1.03939C0.721268 0.987075 0.361448 1.00288 0.290739 1.1876ZM14.0869 1.18528C13.8035 1.52797 14.0599 1.76526 14.7572 1.80588L15.4185 1.84431L15.452 6.88952L15.4854 11.9347H14.804C13.9812 11.9347 13.5515 12.1846 13.767 12.5377C13.893 12.7441 14.1442 12.7743 16.0087 12.807C18.3795 12.8484 18.6849 12.8082 18.6849 12.454C18.6849 12.0806 18.455 11.999 17.4039 11.999H16.4432L16.4082 9.65313L16.3734 7.30727H17.903C18.7442 7.30727 19.5124 7.27655 19.6101 7.23889C19.7405 7.18863 20.0158 7.77709 20.6473 9.45621C21.1201 10.7133 21.5061 11.8143 21.505 11.9026C21.5039 11.9954 21.3389 12.0633 21.1147 12.0633C20.6772 12.0633 20.4913 12.3477 20.7358 12.6434C20.8585 12.7918 21.2122 12.8341 22.3192 12.8326C23.8351 12.8304 24.1173 12.7547 24.0444 12.3692C24.0083 12.1784 23.853 12.114 23.3068 12.0633L22.6151 11.999L21.612 9.55673C21.0603 8.21348 20.6084 7.07808 20.6076 7.03361C20.607 6.98926 20.7778 6.88155 20.9874 6.7944C21.5117 6.57652 22.3323 5.65219 22.5269 5.06039C22.7377 4.41962 22.6279 3.25234 22.2955 2.59833C21.9408 1.90074 21.2148 1.42848 20.1481 1.20174C18.9246 0.941699 14.2988 0.929103 14.0869 1.18528ZM31.3798 1.18528C31.2995 1.28246 31.2698 1.45599 31.3138 1.5709C31.3802 1.74469 31.6095 1.78004 32.6696 1.78004C33.8267 1.78004 33.9389 1.80099 33.8737 2.00498C33.8341 2.12877 32.9705 4.39905 31.9544 7.05019L30.107 11.8705L29.53 11.9093C28.8421 11.9554 28.5928 12.1808 28.8001 12.5692C28.9336 12.8196 29.0523 12.8345 30.9134 12.8345C32.5341 12.8345 32.9211 12.7986 33.0863 12.6328C33.238 12.4805 33.2549 12.3702 33.155 12.1829C33.0426 11.9724 32.8802 11.9347 32.0833 11.9347H31.144L31.6903 10.4244L32.2366 8.91403H34.6977H37.1587L37.6559 10.328C37.9293 11.1056 38.1536 11.7829 38.1543 11.8332C38.1549 11.8833 37.686 11.9411 37.1121 11.9617C36.3056 11.9905 36.0384 12.0476 35.9346 12.2131C35.8375 12.3683 35.847 12.4835 35.9688 12.6309C36.2175 12.9316 40.0885 12.933 40.388 12.6326C40.7772 12.2419 40.5035 11.9356 39.763 11.9328L39.2442 11.9307L37.4027 6.69478C36.39 3.81496 35.4732 1.35753 35.3654 1.23374C35.196 1.03926 34.9227 1.0088 33.3476 1.0088C31.9593 1.0088 31.4911 1.05083 31.3798 1.18528ZM44.9615 1.18104C44.6545 1.55214 44.927 1.76641 45.7566 1.80639L46.5457 1.84431L46.5793 6.8836L46.6127 11.9229L45.76 11.9609C44.8188 12.003 44.4834 12.239 44.8074 12.6309C44.9477 12.8004 45.3002 12.8341 46.9136 12.8326C47.9795 12.8314 48.9285 12.7815 49.0227 12.7216C49.117 12.6616 49.1746 12.4746 49.1508 12.3058C49.1112 12.0247 49.0405 11.9958 48.307 11.9607L47.5064 11.9225L47.5103 7.46178C47.5128 4.52617 47.5565 3.07393 47.6381 3.21416C47.7062 3.33126 48.3139 4.66165 48.9885 6.17059C50.25 8.99231 50.465 9.36392 50.8369 9.36392C51.2202 9.36392 51.4542 8.94719 52.7551 5.94757L54.0331 3.00117L54.0362 7.46178L54.0393 11.9225L53.252 11.9607C52.3775 12.0032 52.0505 12.2504 52.3651 12.6309C52.6133 12.931 56.3571 12.9326 56.6559 12.6328C56.8076 12.4805 56.8245 12.3702 56.7246 12.1829C56.6164 11.9802 56.452 11.9347 55.8281 11.9347H55.0641V6.85738V1.78004H55.753C56.5379 1.78004 56.8828 1.54211 56.5976 1.19736C56.467 1.03939 56.18 1.00751 55.1519 1.03669L53.8692 1.07307L52.3861 4.50612C51.5704 6.39425 50.8624 7.89817 50.8128 7.84817C50.7631 7.79817 50.0401 6.25324 49.206 4.41512L47.6895 1.07307L46.4002 1.03669C45.4144 1.0088 45.0759 1.04273 44.9615 1.18104ZM63.788 1.18528C63.7077 1.28246 63.678 1.45599 63.722 1.5709C63.7884 1.74469 64.0177 1.78004 65.0778 1.78004C66.3393 1.78004 66.3527 1.78325 66.2631 2.06668C66.2132 2.22427 65.3515 4.49468 64.3483 7.11189L62.5242 11.8705L61.9236 11.9417C61.2663 12.0196 61.033 12.2405 61.2261 12.6026C61.3373 12.8111 61.5544 12.8345 63.3791 12.8345C65.0745 12.8345 65.4361 12.801 65.5769 12.6309C65.6987 12.4836 65.7082 12.3682 65.6111 12.2131C65.5105 12.0526 65.2479 11.9895 64.5617 11.9612C64.0583 11.9405 63.646 11.8827 63.6454 11.8327C63.6448 11.7828 63.8822 11.09 64.1728 10.2931L64.7012 8.84436L67.1404 8.87919L69.5797 8.91403L70.0649 10.2637C70.3318 11.006 70.5531 11.6833 70.5568 11.7689C70.5615 11.8753 70.2352 11.9361 69.5203 11.9617C68.7138 11.9905 68.4466 12.0476 68.3428 12.2131C68.2457 12.3683 68.2552 12.4835 68.377 12.6309C68.6275 12.9337 72.6279 12.9337 72.8783 12.6309C73.1458 12.3075 72.8635 12.0086 72.2204 11.9347L71.6615 11.8705L69.8474 6.72884C68.8496 3.90095 67.937 1.45714 67.8193 1.29801C67.6149 1.02152 67.5247 1.0088 65.7698 1.0088C64.3696 1.0088 63.8993 1.0507 63.788 1.18528ZM76.2162 1.18181C76.1344 1.28079 76.1033 1.45599 76.1473 1.5709C76.2111 1.73801 76.4179 1.78004 77.1743 1.78004H78.1213V6.85738V11.9347H77.4913C77.1448 11.9347 76.7701 11.9698 76.6587 12.0127C76.3959 12.1139 76.3959 12.6553 76.6587 12.7565C76.9689 12.876 80.5959 12.8453 80.7904 12.7216C80.8847 12.6616 80.9423 12.4746 80.9185 12.3058C80.8785 12.0215 80.8118 11.9962 80.0107 11.9609L79.146 11.923L79.1466 6.94787C79.1469 2.09419 79.1527 1.98223 79.3783 2.35847C79.5056 2.57056 80.785 5.0163 82.2216 7.79328C84.4017 12.0075 84.8856 12.8556 85.1481 12.9218C85.795 13.0846 85.807 12.9795 85.807 7.15418V1.78004H86.4399C87.1228 1.78004 87.2787 1.66628 87.1506 1.26163C87.0723 1.01394 86.9773 1.00404 84.9968 1.03785L82.9249 1.07307V1.39442C82.9249 1.7042 82.9584 1.71718 83.8535 1.75356L84.7822 1.79135L84.7799 6.31674L84.7778 10.8421L82.2967 5.9576L79.8156 1.07307L78.0904 1.03746C76.7345 1.00944 76.3332 1.04029 76.2162 1.18181ZM92.8986 1.20161C92.7141 1.68428 92.9282 1.78004 94.1933 1.78004C94.8648 1.78004 95.4158 1.82349 95.4179 1.87644C95.4199 1.9294 94.5698 4.21318 93.5285 6.95134L91.6354 11.93L91.1655 11.9323C90.907 11.9337 90.6044 11.9698 90.493 12.0127C90.2303 12.1139 90.2303 12.6553 90.493 12.7565C90.6044 12.7994 91.5485 12.8345 92.5908 12.8345C94.1638 12.8345 94.5148 12.7999 94.6546 12.6309C94.7764 12.4836 94.7859 12.3682 94.6888 12.2131C94.588 12.0521 94.3249 11.9896 93.628 11.9609C92.9745 11.9342 92.7167 11.8774 92.7539 11.7681C92.7828 11.683 93.031 10.9903 93.3053 10.2289L93.8043 8.84436L96.2401 8.87919L98.676 8.91403L99.2043 10.3922L99.7327 11.8705L98.674 11.9075C97.4984 11.9485 97.2116 12.1048 97.4594 12.5692C97.5935 12.8206 97.7103 12.8345 99.6942 12.8345C101.448 12.8345 101.815 12.8015 101.956 12.6309C102.223 12.3084 101.943 12.0054 101.337 11.96C100.992 11.9342 100.788 11.8474 100.731 11.703C100.684 11.583 99.8661 9.28679 98.9132 6.6003C97.1289 1.56949 97.011 1.26729 96.772 1.10713C96.6945 1.0552 95.8078 1.01188 94.8018 1.01072C93.2925 1.00918 92.9594 1.0426 92.8986 1.20161ZM151.823 1.20161C151.641 1.67746 151.852 1.76975 153.212 1.80767L154.53 1.84431L154.564 6.88952L154.597 11.9347H153.132C151.971 11.9347 151.625 11.9766 151.465 12.1364C151.314 12.2887 151.297 12.399 151.397 12.5863C151.524 12.8247 151.717 12.8345 156.308 12.8345C160.909 12.8345 161.096 12.825 161.317 12.5799C161.494 12.3842 161.587 11.9027 161.719 10.5011C161.898 8.59357 161.859 8.33559 161.383 8.33559C160.999 8.33559 160.894 8.61453 160.69 10.1787C160.581 11.0123 160.458 11.7485 160.418 11.8145C160.376 11.8823 159.284 11.9347 157.917 11.9347H155.491V6.85738V1.78004H156.456C157.473 1.78004 157.751 1.61114 157.411 1.19994C157.175 0.913934 151.932 0.915476 151.823 1.20161ZM166.81 1.20161C166.623 1.68942 166.836 1.78004 168.169 1.78004H169.453V6.85327V11.9266L167.962 11.9627C166.735 11.9926 166.447 12.037 166.336 12.2131C166.239 12.3684 166.248 12.4833 166.37 12.6309C166.518 12.81 167.113 12.8345 171.307 12.8345C175.767 12.8345 176.088 12.8193 176.287 12.5989C176.441 12.4283 176.548 11.8702 176.676 10.5766C176.773 9.59375 176.825 8.71865 176.792 8.63175C176.695 8.3784 176.233 8.29022 176.036 8.48753C175.933 8.59075 175.774 9.31032 175.658 10.1967C175.548 11.0387 175.43 11.7742 175.395 11.8311C175.359 11.8881 174.239 11.9347 172.904 11.9347H170.478V6.85738V1.78004H171.425C172.182 1.78004 172.388 1.73801 172.452 1.5709C172.646 1.06433 172.36 1.0088 169.562 1.0088C167.299 1.0088 166.872 1.03875 166.81 1.20161ZM182.02 1.18528C181.708 1.56293 181.991 1.76705 182.883 1.80652L183.736 1.84431L183.77 6.88952L183.803 11.9347L182.873 11.9367C181.806 11.939 181.583 12.0343 181.643 12.4634L181.687 12.7702L186.64 12.8039C191.016 12.8336 191.616 12.8138 191.796 12.634C192.091 12.338 192.092 9.47613 191.797 9.18023C191.32 8.70206 191.135 9.04912 191.027 10.6209L190.937 11.9347H187.814H184.691L184.726 9.46032L184.761 6.98592L186.382 6.95006L188.002 6.9142L188.111 7.84984C188.213 8.73304 188.237 8.78549 188.54 8.78549H188.86V6.66457V4.54366H188.54C188.241 4.54366 188.212 4.60111 188.108 5.41503L187.996 6.28641L186.379 6.25054L184.761 6.21468V4.02949V1.84431L187.786 1.80986L190.811 1.77541L190.891 2.25975C190.935 2.52609 190.971 3.09449 190.972 3.52292C190.974 4.44365 191.207 4.8839 191.574 4.65844C191.774 4.53582 191.811 4.29866 191.842 2.94127C191.866 1.89007 191.829 1.30688 191.73 1.1876C191.513 0.924475 182.238 0.92229 182.02 1.18528ZM212.196 1.09299C212.148 1.14094 212.109 2.01103 212.109 3.02662C212.109 4.61757 212.138 4.88429 212.319 4.95383C212.803 5.14008 212.938 4.8348 213.022 3.37342C213.066 2.60308 213.109 1.9294 213.118 1.87644C213.127 1.82349 213.912 1.78004 214.863 1.78004H216.593V6.85301V11.926L215.229 11.9625C214.123 11.9922 213.841 12.0394 213.731 12.2131C213.634 12.3684 213.644 12.4833 213.766 12.6309C213.911 12.8065 214.359 12.8342 217.025 12.8326C218.725 12.8314 220.192 12.7815 220.287 12.7216C220.381 12.6616 220.438 12.4746 220.415 12.3058C220.373 12.0068 220.336 11.9981 218.994 11.9625L217.617 11.926V6.85301V1.78004H219.333C220.779 1.78004 221.061 1.81192 221.126 1.98339C221.169 2.09522 221.204 2.74885 221.204 3.4359C221.204 4.72258 221.297 4.99355 221.74 4.99355C222.064 4.99355 222.116 4.64302 222.074 2.74409L222.037 1.07307L217.16 1.03939C214.478 1.02088 212.244 1.04505 212.196 1.09299ZM226.471 1.18348C226.39 1.28156 226.359 1.45599 226.403 1.5709C226.472 1.7497 226.733 1.78004 228.199 1.78004H229.915V6.85738V11.9347H228.265C226.462 11.9347 226.168 12.0376 226.452 12.5692C226.59 12.8278 226.686 12.8345 230.288 12.8345C233.502 12.8345 234.004 12.808 234.151 12.6309C234.273 12.4833 234.282 12.3684 234.185 12.2131C234.073 12.036 233.781 11.9927 232.495 11.9629L230.939 11.9268V6.85725V1.78775L232.573 1.75176L234.206 1.71577V1.39442V1.07307L230.412 1.039C227.302 1.01111 226.592 1.0372 226.471 1.18348ZM237.87 1.18528C237.579 1.53723 237.843 1.7659 238.587 1.80613L239.294 1.84431L239.93 3.83668C242.78 12.7546 242.855 12.97 243.185 13.1209C243.452 13.2425 243.543 13.2258 243.744 13.0183C243.894 12.8637 244.573 10.7858 245.546 7.50008C246.405 4.6015 247.161 2.12877 247.226 2.00498C247.311 1.84341 247.502 1.78004 247.903 1.78004C248.504 1.78004 248.752 1.51987 248.472 1.18194C248.355 1.03977 247.932 1.00957 246.453 1.03759L244.582 1.07307V1.39442C244.582 1.69944 244.623 1.7177 245.395 1.75433C246.089 1.78737 246.2 1.82516 246.15 2.01141C245.516 4.33015 243.446 11.5449 243.422 11.5195C243.368 11.4631 240.418 2.00357 240.418 1.88685C240.418 1.82811 240.787 1.78004 241.237 1.78004C241.876 1.78004 242.074 1.73389 242.136 1.5709C242.32 1.08991 242.008 1.0088 239.97 1.0088C238.47 1.0088 237.982 1.0498 237.87 1.18528ZM251.948 1.19994C251.631 1.58324 251.89 1.76603 252.805 1.80613L253.676 1.84431L253.71 6.88952L253.743 11.9347H252.806C251.725 11.9347 251.273 12.1454 251.513 12.5377C251.645 12.7546 251.986 12.7725 256.557 12.8039C260.07 12.8281 261.51 12.7962 261.635 12.6918C261.905 12.467 261.885 9.3287 261.612 9.10144C261.448 8.96518 261.377 8.97213 261.208 9.14167C261.058 9.29271 260.987 9.69003 260.942 10.641L260.88 11.9347H257.758H254.637V9.42819V6.92165H256.242C257.416 6.92165 257.86 6.96484 257.895 7.08233C257.921 7.17076 257.991 7.58967 258.051 8.01334C258.136 8.6153 258.212 8.79371 258.4 8.82944C258.533 8.85451 258.691 8.79705 258.751 8.70168C258.875 8.5054 258.906 4.99509 258.786 4.68274C258.688 4.42411 258.239 4.41756 258.141 4.67335C258.101 4.77991 258.031 5.17042 257.985 5.541L257.904 6.21468L256.27 6.25067L254.637 6.28666V4.03335V1.78004H257.693H260.749L260.831 2.57018C260.877 3.00464 260.914 3.60043 260.914 3.89414C260.914 4.64893 261.217 4.92812 261.609 4.53453C261.768 4.3754 261.81 4.03258 261.81 2.91929C261.81 2.14201 261.751 1.39416 261.678 1.25739C261.55 1.01857 261.361 1.0088 256.826 1.0088C252.805 1.0088 252.083 1.03708 251.948 1.19994ZM144.624 2.00473C145.485 2.38701 146.086 2.99192 146.571 3.96612C147.943 6.71804 147.194 10.3563 145.002 11.5908C144.052 12.1256 142.695 12.2147 141.631 11.8121C139.304 10.9307 138.228 7.45535 139.351 4.44404C140.205 2.15294 142.532 1.07641 144.624 2.00473ZM7.00475 2.10627C8.01837 2.40834 8.56533 3.17457 8.56533 4.29236C8.56533 5.20962 8.23779 5.84911 7.56568 6.24437C7.01845 6.56611 6.85948 6.59169 5.08318 6.64233L3.18532 6.69645V4.32385C3.18532 3.01904 3.22861 1.90639 3.28139 1.85125C3.42575 1.70073 6.30573 1.89804 7.00475 2.10627ZM19.3152 1.91488C20.5676 2.07247 21.038 2.28353 21.3743 2.83831C22.0854 4.01163 21.7105 5.5554 20.5739 6.13306C20.043 6.40299 19.7358 6.45081 18.1721 6.50724L16.3792 6.57202V4.26177C16.3792 2.99102 16.4176 1.91282 16.4646 1.86578C16.5932 1.73659 18.1059 1.76281 19.3152 1.91488ZM69.1516 7.91784C69.1538 8.03982 68.6609 8.07851 67.105 8.07851C65.9778 8.07851 65.0555 8.03969 65.0555 7.99239C65.0555 7.91758 66.788 3.17753 67.1381 2.2942C67.2489 2.01475 67.3883 2.34986 68.2071 4.86501C68.7249 6.45569 69.15 7.82953 69.1516 7.91784ZM98.2715 7.98211C98.2416 8.03507 97.3305 8.07851 96.2468 8.07851C95.1631 8.07851 94.2521 8.03507 94.2223 7.98211C94.1925 7.92915 94.6611 6.55891 95.2635 4.93737L96.3589 1.98905L97.3424 4.93737C97.8832 6.55891 98.3013 7.92915 98.2715 7.98211ZM35.8199 4.9645C36.3294 6.5039 36.7464 7.83429 36.7464 7.92092C36.7464 8.03879 36.2293 8.07851 34.6968 8.07851C33.5696 8.07851 32.6468 8.03507 32.6463 7.98211C32.6444 7.8001 34.7532 2.16566 34.8233 2.16566C34.8618 2.16566 35.3103 3.42523 35.8199 4.9645ZM112.405 4.99715C111.371 5.30809 110.89 6.48333 111.376 7.51075C111.791 8.38984 112.976 8.72983 113.821 8.21271C115.049 7.46139 114.973 5.75618 113.684 5.1298C113.094 4.84341 112.962 4.82966 112.405 4.99715ZM113.492 5.58046C113.713 5.69499 113.961 5.97701 114.068 6.23422C114.598 7.50497 113.029 8.54987 112.057 7.57425C111.445 6.96073 111.619 5.8932 112.384 5.55861C112.891 5.33701 113.028 5.33971 113.492 5.58046Z" fill="white" stroke="white" stroke-width="4" mask="url(#path-1-inside-1)"/>
</svg>
