<svg width="300" height="59" viewBox="0 0 300 59" fill="none" xmlns="http://www.w3.org/2000/svg">
<mask id="path-1-inside-1" fill="white">
<path fill-rule="evenodd" clip-rule="evenodd" d="M0 29.5V59H150H300V29.5V0H150H0V29.5ZM299.488 29.5V58.4858H150H0.512383V29.5V0.514161H150H299.488V29.5ZM147.592 23.1276C144.757 24.1806 143.378 27.435 144.32 30.8497C144.784 32.5342 145.879 33.8918 147.31 34.5587C147.927 34.8461 148.189 34.8876 149.424 34.8928C150.754 34.8983 150.879 34.8759 151.665 34.4887C152.123 34.2632 152.618 33.9723 152.765 33.8422C153.68 33.0341 154.489 31.3521 154.087 31.0966C153.636 30.8098 153.384 30.9641 153.073 31.7167C152.66 32.7147 151.793 33.5716 150.889 33.8731C147.635 34.9587 144.808 32.3297 145.04 28.4331C145.12 27.0981 145.248 26.6382 145.803 25.7108C146.293 24.889 147.236 24.1298 148.066 23.8877C148.827 23.6656 150.196 23.6699 150.769 23.8962C151.909 24.3475 152.674 25.1532 152.985 26.2312C153.132 26.7392 153.19 26.8007 153.528 26.8007H153.907L153.943 25.0831C153.98 23.297 153.911 23.0087 153.447 23.0087C153.146 23.0087 152.946 23.3838 152.946 23.9473V24.3887L152.504 23.9703C151.703 23.2117 150.988 22.9559 149.552 22.9133C148.527 22.8829 148.135 22.9258 147.592 23.1276ZM161.238 23.184C159.198 24.0458 158.097 25.8505 157.974 28.5375C157.844 31.3491 158.953 33.5587 160.976 34.5187C162.008 35.0086 163.589 35.1017 164.624 34.7336C166.822 33.9529 168.029 32.0978 168.158 29.3056C168.285 26.5388 167.285 24.4323 165.349 23.3895C164.608 22.9903 164.43 22.9498 163.258 22.9126C162.135 22.8768 161.886 22.9104 161.238 23.184ZM220.282 23.1875C218.892 23.7743 218.135 24.4607 217.504 25.7081C217.051 26.6032 216.869 27.4671 216.867 28.7339C216.863 32.4629 219.025 34.963 222.256 34.963C224.184 34.963 225.782 34.0604 226.575 32.5217C227.087 31.5307 227.084 31.0613 226.566 31.0015C226.246 30.9646 226.18 31.0301 225.901 31.6636C224.921 33.8873 222.572 34.7381 220.368 33.6677C218.401 32.7122 217.34 29.9008 217.956 27.2787C218.325 25.7068 219.124 24.6693 220.434 24.0597C221.021 23.7863 221.35 23.7224 222.182 23.7199C223.956 23.7147 225.14 24.52 225.728 26.1325C225.973 26.8034 226.033 26.8743 226.333 26.8395L226.665 26.8007V24.9368V23.073H226.281C225.907 23.073 225.896 23.0915 225.858 23.7564L225.819 24.4399L225.297 23.9669C224.452 23.2013 223.778 22.9639 222.31 22.9148C221.181 22.877 220.941 22.9092 220.282 23.1875ZM20.2907 23.1875C20.1181 23.6393 20.3244 23.7672 21.2896 23.8063L22.2246 23.8442L22.2582 28.8894L22.2916 33.9346H21.281C20.1484 33.9346 19.8533 34.094 20.1067 34.5691C20.2439 34.8265 20.3457 34.8344 23.4944 34.8344C26.3 34.8344 26.7635 34.8068 26.9091 34.6308C27.0311 34.4832 27.0403 34.3683 26.943 34.2131C26.8296 34.0326 26.523 33.9933 24.9939 33.9632L23.1793 33.9276L23.2144 31.7137L23.2494 29.5L25.2592 29.4225C27.1067 29.3512 27.327 29.3164 27.9877 28.992C28.4494 28.7654 28.8165 28.4713 29.0139 28.1699C29.8896 26.8332 29.6499 24.7146 28.5257 23.8543C27.6338 23.1716 27.221 23.1023 23.667 23.0393C20.7213 22.987 20.3614 23.0028 20.2907 23.1875ZM34.0869 23.1852C33.8035 23.5279 34.0599 23.7652 34.7572 23.8058L35.4184 23.8442L35.452 28.8894L35.4854 33.9346H34.804C33.9812 33.9346 33.5515 34.1845 33.767 34.5376C33.893 34.7441 34.1441 34.7743 36.0087 34.8069C38.3795 34.8483 38.6849 34.8081 38.6849 34.4539C38.6849 34.0805 38.455 33.9989 37.4039 33.9989H36.4432L36.4082 31.6531L36.3734 29.3072H37.903C38.7442 29.3072 39.5124 29.2765 39.6101 29.2388C39.7405 29.1885 40.0158 29.777 40.6473 31.4561C41.1201 32.7133 41.5061 33.8142 41.505 33.9025C41.5039 33.9953 41.3389 34.0632 41.1147 34.0632C40.6772 34.0632 40.4913 34.3476 40.7358 34.6433C40.8585 34.7917 41.2122 34.834 42.3192 34.8325C43.8351 34.8303 44.1173 34.7546 44.0444 34.3691C44.0083 34.1784 43.853 34.114 43.3068 34.0632L42.6151 33.9989L41.612 31.5566C41.0603 30.2134 40.6084 29.078 40.6076 29.0335C40.607 28.9892 40.7778 28.8815 40.9874 28.7943C41.5117 28.5764 42.3323 27.6521 42.5269 27.0603C42.7377 26.4195 42.6279 25.2523 42.2955 24.5982C41.9408 23.9007 41.2148 23.4284 40.1481 23.2017C38.9246 22.9416 34.2988 22.929 34.0869 23.1852ZM51.3798 23.1852C51.2995 23.2824 51.2698 23.4559 51.3138 23.5708C51.3802 23.7446 51.6095 23.78 52.6696 23.78C53.8267 23.78 53.9389 23.8009 53.8737 24.0049C53.8341 24.1287 52.9705 26.399 51.9544 29.0501L50.107 33.8704L49.53 33.9092C48.8421 33.9553 48.5928 34.1807 48.8001 34.5691C48.9336 34.8195 49.0523 34.8344 50.9134 34.8344C52.5341 34.8344 52.921 34.7986 53.0863 34.6327C53.238 34.4804 53.2549 34.3701 53.155 34.1829C53.0426 33.9723 52.8802 33.9346 52.0833 33.9346H51.144L51.6903 32.4243L52.2366 30.9139H54.6977H57.1587L57.6558 32.3279C57.9293 33.1056 58.1536 33.7828 58.1543 33.8331C58.1549 33.8832 57.686 33.9411 57.1121 33.9616C56.3056 33.9904 56.0384 34.0475 55.9346 34.2131C55.8375 34.3682 55.847 34.4834 55.9688 34.6308C56.2175 34.9315 60.0885 34.9329 60.388 34.6325C60.7772 34.2419 60.5035 33.9355 59.763 33.9327L59.2442 33.9307L57.4027 28.6947C56.39 25.8149 55.4732 23.3574 55.3654 23.2337C55.196 23.0392 54.9227 23.0087 53.3476 23.0087C51.9593 23.0087 51.4911 23.0507 51.3798 23.1852ZM64.9615 23.181C64.6545 23.5521 64.9269 23.7663 65.7566 23.8063L66.5457 23.8442L66.5792 28.8835L66.6127 33.9228L65.7599 33.9609C64.8188 34.0029 64.4833 34.2389 64.8074 34.6308C64.9477 34.8004 65.3002 34.834 66.9136 34.8325C67.9795 34.8313 68.9285 34.7815 69.0227 34.7216C69.1169 34.6615 69.1746 34.4745 69.1508 34.3057C69.1112 34.0246 69.0405 33.9957 68.307 33.9606L67.5064 33.9224L67.5102 29.4617C67.5128 26.5261 67.5565 25.0738 67.6381 25.2141C67.7062 25.3312 68.3139 26.6616 68.9885 28.1705C70.25 30.9922 70.465 31.3638 70.8369 31.3638C71.2202 31.3638 71.4542 30.9471 72.7551 27.9475L74.0331 25.0011L74.0362 29.4617L74.0393 33.9224L73.252 33.9606C72.3775 34.0032 72.0505 34.2503 72.3651 34.6308C72.6133 34.931 76.357 34.9325 76.6559 34.6327C76.8076 34.4804 76.8245 34.3701 76.7245 34.1829C76.6164 33.9801 76.452 33.9346 75.8281 33.9346H75.064V28.8573V23.78H75.7529C76.5379 23.78 76.8827 23.542 76.5976 23.1973C76.4669 23.0393 76.18 23.0074 75.1519 23.0366L73.8692 23.073L72.3861 26.506C71.5704 28.3942 70.8624 29.8981 70.8128 29.8481C70.7631 29.7981 70.0401 28.2532 69.206 26.415L67.6895 23.073L66.4002 23.0366C65.4143 23.0087 65.0759 23.0426 64.9615 23.181ZM83.788 23.1852C83.7077 23.2824 83.678 23.4559 83.722 23.5708C83.7884 23.7446 84.0177 23.78 85.0778 23.78C86.3393 23.78 86.3527 23.7832 86.2631 24.0666C86.2132 24.2242 85.3515 26.4946 84.3483 29.1118L82.5242 33.8704L81.9236 33.9416C81.2663 34.0195 81.033 34.2404 81.2261 34.6025C81.3373 34.811 81.5544 34.8344 83.3791 34.8344C85.0745 34.8344 85.4361 34.8009 85.5769 34.6308C85.6987 34.4835 85.7081 34.3681 85.6111 34.2131C85.5105 34.0525 85.2479 33.9894 84.5617 33.9611C84.0583 33.9404 83.6459 33.8826 83.6454 33.8326C83.6448 33.7827 83.8821 33.0899 84.1728 32.2931L84.7012 30.8443L87.1404 30.8791L89.5797 30.9139L90.0649 32.2636C90.3318 33.0059 90.5531 33.6832 90.5568 33.7688C90.5614 33.8753 90.2352 33.9361 89.5203 33.9616C88.7138 33.9904 88.4466 34.0475 88.3428 34.2131C88.2457 34.3682 88.2552 34.4834 88.377 34.6308C88.6274 34.9337 92.6279 34.9337 92.8783 34.6308C93.1458 34.3074 92.8635 34.0086 92.2204 33.9346L91.6615 33.8704L89.8474 28.7288C88.8496 25.9009 87.937 23.4571 87.8193 23.2979C87.6149 23.0214 87.5247 23.0087 85.7698 23.0087C84.3696 23.0087 83.8993 23.0506 83.788 23.1852ZM96.2162 23.1817C96.1344 23.2807 96.1032 23.4559 96.1473 23.5708C96.2111 23.7379 96.4178 23.78 97.1742 23.78H98.1213V28.8573V33.9346H97.4913C97.1448 33.9346 96.7701 33.9697 96.6587 34.0127C96.3959 34.1138 96.3959 34.6552 96.6587 34.7564C96.9689 34.8759 100.596 34.8452 100.79 34.7216C100.885 34.6615 100.942 34.4745 100.918 34.3057C100.879 34.0214 100.812 33.9961 100.011 33.9609L99.146 33.9229L99.1465 28.9478C99.1469 24.0941 99.1527 23.9822 99.3783 24.3584C99.5056 24.5705 100.785 27.0162 102.222 29.7932C104.402 34.0074 104.886 34.8555 105.148 34.9217C105.795 35.0846 105.807 34.9794 105.807 29.1541V23.78H106.44C107.123 23.78 107.279 23.6662 107.151 23.2616C107.072 23.0139 106.977 23.004 104.997 23.0378L102.925 23.073V23.3943C102.925 23.7041 102.958 23.7171 103.854 23.7535L104.782 23.7913L104.78 28.3167L104.778 32.842L102.297 27.9575L99.8156 23.073L98.0904 23.0374C96.7345 23.0094 96.3332 23.0402 96.2162 23.1817ZM112.899 23.2015C112.714 23.6842 112.928 23.78 114.193 23.78C114.865 23.78 115.416 23.8234 115.418 23.8764C115.42 23.9293 114.57 26.2131 113.528 28.9513L111.635 33.9299L111.165 33.9322C110.907 33.9336 110.604 33.9697 110.493 34.0127C110.23 34.1138 110.23 34.6552 110.493 34.7564C110.604 34.7993 111.548 34.8344 112.591 34.8344C114.164 34.8344 114.515 34.7998 114.655 34.6308C114.776 34.4835 114.786 34.3681 114.689 34.2131C114.588 34.052 114.325 33.9895 113.628 33.9609C112.974 33.9341 112.717 33.8773 112.754 33.7681C112.783 33.683 113.031 32.9903 113.305 32.2288L113.804 30.8443L116.24 30.8791L118.676 30.9139L119.204 32.3922L119.733 33.8704L118.674 33.9074C117.498 33.9484 117.212 34.1047 117.459 34.5691C117.593 34.8205 117.71 34.8344 119.694 34.8344C121.448 34.8344 121.815 34.8014 121.956 34.6308C122.223 34.3083 121.943 34.0053 121.337 33.96C120.992 33.9341 120.788 33.8474 120.731 33.7029C120.684 33.583 119.866 31.2867 118.913 28.6002C117.129 23.5694 117.011 23.2672 116.772 23.107C116.694 23.0551 115.808 23.0118 114.802 23.0106C113.293 23.0091 112.959 23.0425 112.899 23.2015ZM171.823 23.2015C171.641 23.6774 171.852 23.7697 173.212 23.8076L174.53 23.8442L174.564 28.8894L174.597 33.9346H173.132C171.971 33.9346 171.625 33.9765 171.465 34.1363C171.314 34.2886 171.297 34.3989 171.397 34.5862C171.524 34.8247 171.717 34.8344 176.308 34.8344C180.909 34.8344 181.096 34.8249 181.317 34.5798C181.494 34.3841 181.587 33.9026 181.719 32.501C181.898 30.5935 181.859 30.3355 181.383 30.3355C180.999 30.3355 180.894 30.6144 180.69 32.1787C180.581 33.0122 180.458 33.7484 180.418 33.8145C180.376 33.8822 179.284 33.9346 177.917 33.9346H175.491V28.8573V23.78H176.456C177.473 23.78 177.751 23.6111 177.411 23.1999C177.175 22.9139 171.932 22.9154 171.823 23.2015ZM186.81 23.2015C186.623 23.6893 186.836 23.78 188.169 23.78H189.453V28.8532V33.9265L187.962 33.9627C186.735 33.9925 186.447 34.037 186.336 34.2131C186.239 34.3683 186.248 34.4832 186.37 34.6308C186.518 34.8099 187.113 34.8344 191.307 34.8344C195.767 34.8344 196.088 34.8193 196.287 34.5988C196.441 34.4282 196.548 33.8701 196.676 32.5765C196.773 31.5937 196.825 30.7186 196.792 30.6317C196.695 30.3783 196.233 30.2901 196.036 30.4874C195.933 30.5907 195.774 31.3102 195.658 32.1966C195.548 33.0386 195.43 33.7741 195.395 33.831C195.359 33.888 194.239 33.9346 192.904 33.9346H190.478V28.8573V23.78H191.425C192.182 23.78 192.388 23.7379 192.452 23.5708C192.646 23.0642 192.36 23.0087 189.562 23.0087C187.299 23.0087 186.872 23.0387 186.81 23.2015ZM202.02 23.1852C201.708 23.5629 201.991 23.767 202.883 23.8064L203.736 23.8442L203.77 28.8894L203.803 33.9346L202.873 33.9366C201.806 33.9389 201.583 34.0343 201.643 34.4633L201.687 34.7702L206.64 34.8038C211.016 34.8335 211.616 34.8137 211.796 34.6339C212.091 34.3379 212.092 31.4761 211.797 31.1802C211.32 30.702 211.135 31.049 211.027 32.6208L210.937 33.9346H207.814H204.691L204.726 31.4602L204.761 28.9858L206.382 28.95L208.002 28.9141L208.111 29.8498C208.213 30.733 208.237 30.7854 208.54 30.7854H208.86V28.6645V26.5436H208.54C208.241 26.5436 208.212 26.601 208.108 27.4149L207.996 28.2863L206.379 28.2505L204.761 28.2146V26.0294V23.8442L207.786 23.8098L210.811 23.7753L210.891 24.2597C210.935 24.526 210.971 25.0944 210.972 25.5228C210.974 26.4436 211.207 26.8838 211.574 26.6584C211.774 26.5357 211.811 26.2986 211.842 24.9412C211.866 23.89 211.829 23.3068 211.73 23.1875C211.513 22.9244 202.238 22.9222 202.02 23.1852ZM232.196 23.0929C232.148 23.1409 232.109 24.0109 232.109 25.0265C232.109 26.6175 232.138 26.8842 232.319 26.9537C232.803 27.14 232.938 26.8347 233.022 25.3733C233.066 24.603 233.109 23.9293 233.118 23.8764C233.127 23.8234 233.912 23.78 234.863 23.78H236.593V28.8529V33.9259L235.229 33.9624C234.123 33.9921 233.841 34.0393 233.731 34.2131C233.634 34.3683 233.644 34.4832 233.766 34.6308C233.911 34.8064 234.359 34.8342 237.025 34.8325C238.725 34.8313 240.192 34.7815 240.287 34.7216C240.381 34.6615 240.438 34.4745 240.415 34.3057C240.373 34.0068 240.336 33.998 238.994 33.9624L237.617 33.9259V28.8529V23.78H239.333C240.779 23.78 241.061 23.8118 241.126 23.9833C241.169 24.0951 241.204 24.7488 241.204 25.4358C241.204 26.7225 241.297 26.9935 241.74 26.9935C242.064 26.9935 242.116 26.6429 242.074 24.744L242.037 23.073L237.16 23.0393C234.478 23.0208 232.244 23.045 232.196 23.0929ZM246.471 23.1834C246.39 23.2815 246.359 23.4559 246.403 23.5708C246.472 23.7496 246.733 23.78 248.199 23.78H249.915V28.8573V33.9346H248.265C246.462 33.9346 246.168 34.0375 246.452 34.5691C246.59 34.8277 246.686 34.8344 250.288 34.8344C253.502 34.8344 254.004 34.8079 254.151 34.6308C254.273 34.4832 254.282 34.3683 254.185 34.2131C254.073 34.0359 253.781 33.9926 252.495 33.9628L250.939 33.9267V28.8572V23.7877L252.573 23.7517L254.206 23.7157V23.3943V23.073L250.412 23.0389C247.302 23.011 246.592 23.0371 246.471 23.1834ZM257.87 23.1852C257.579 23.5371 257.843 23.7658 258.587 23.8061L259.294 23.8442L259.93 25.8366C262.78 34.7545 262.855 34.9699 263.185 35.1208C263.452 35.2424 263.543 35.2257 263.744 35.0182C263.894 34.8636 264.573 32.7857 265.546 29.5C266.405 26.6014 267.161 24.1287 267.226 24.0049C267.311 23.8433 267.502 23.78 267.903 23.78C268.504 23.78 268.752 23.5198 268.472 23.1819C268.355 23.0397 267.932 23.0095 266.453 23.0375L264.582 23.073V23.3943C264.582 23.6994 264.623 23.7176 265.395 23.7542C266.089 23.7873 266.2 23.8251 266.15 24.0113C265.516 26.3301 263.446 33.5448 263.422 33.5195C263.368 33.463 260.418 24.0035 260.418 23.8868C260.418 23.828 260.787 23.78 261.237 23.78C261.876 23.78 262.074 23.7338 262.136 23.5708C262.32 23.0898 262.008 23.0087 259.97 23.0087C258.47 23.0087 257.982 23.0497 257.87 23.1852ZM271.948 23.1999C271.631 23.5832 271.89 23.7659 272.805 23.8061L273.676 23.8442L273.71 28.8894L273.743 33.9346H272.806C271.725 33.9346 271.273 34.1453 271.513 34.5376C271.645 34.7545 271.986 34.7725 276.557 34.8038C280.07 34.828 281.51 34.7961 281.635 34.6917C281.905 34.4669 281.885 31.3286 281.612 31.1014C281.448 30.9651 281.377 30.972 281.208 31.1416C281.058 31.2926 280.987 31.6899 280.942 32.6409L280.88 33.9346H277.758H274.637V31.4281V28.9216H276.242C277.416 28.9216 277.86 28.9648 277.895 29.0822C277.921 29.1707 277.991 29.5896 278.051 30.0133C278.136 30.6152 278.212 30.7936 278.4 30.8294C278.533 30.8544 278.691 30.797 278.751 30.7016C278.875 30.5053 278.906 26.995 278.786 26.6827C278.688 26.424 278.239 26.4175 278.141 26.6733C278.101 26.7798 278.031 27.1703 277.985 27.5409L277.904 28.2146L276.27 28.2506L274.637 28.2866V26.0333V23.78H277.693H280.749L280.831 24.5701C280.877 25.0046 280.914 25.6003 280.914 25.8941C280.914 26.6488 281.217 26.928 281.609 26.5344C281.768 26.3753 281.81 26.0325 281.81 24.9192C281.81 24.1419 281.751 23.3941 281.678 23.2573C281.55 23.0185 281.361 23.0087 276.826 23.0087C272.805 23.0087 272.083 23.037 271.948 23.1999ZM164.624 24.0046C165.485 24.3869 166.086 24.9918 166.571 25.966C167.943 28.718 167.194 32.3562 165.002 33.5907C164.052 34.1255 162.695 34.2146 161.631 33.812C159.304 32.9306 158.228 29.4553 159.351 26.444C160.205 24.1529 162.532 23.0763 164.624 24.0046ZM27.0047 24.1062C28.0184 24.4083 28.5653 25.1745 28.5653 26.2923C28.5653 27.2095 28.2378 27.849 27.5657 28.2443C27.0184 28.566 26.8595 28.5916 25.0832 28.6423L23.1853 28.6964V26.3238C23.1853 25.019 23.2286 23.9063 23.2814 23.8512C23.4257 23.7006 26.3057 23.898 27.0047 24.1062ZM39.3152 23.9148C40.5676 24.0724 41.038 24.2835 41.3743 24.8382C42.0854 26.0115 41.7105 27.5553 40.5739 28.133C40.043 28.4029 39.7358 28.4507 38.1721 28.5072L36.3792 28.5719V26.2617C36.3792 24.9909 36.4176 23.9127 36.4646 23.8657C36.5932 23.7365 38.1059 23.7627 39.3152 23.9148ZM89.1516 29.9178C89.1538 30.0397 88.6609 30.0784 87.105 30.0784C85.9778 30.0784 85.0555 30.0396 85.0555 29.9923C85.0555 29.9175 86.788 25.1774 87.1381 24.2941C87.2489 24.0147 87.3883 24.3498 88.207 26.8649C88.7249 28.4556 89.15 29.8294 89.1516 29.9178ZM118.271 29.982C118.242 30.035 117.33 30.0784 116.247 30.0784C115.163 30.0784 114.252 30.035 114.222 29.982C114.193 29.9291 114.661 28.5588 115.264 26.9373L116.359 23.989L117.342 26.9373C117.883 28.5588 118.301 29.9291 118.271 29.982ZM55.8199 26.9644C56.3294 28.5038 56.7464 29.8342 56.7464 29.9208C56.7464 30.0387 56.2292 30.0784 54.6968 30.0784C53.5696 30.0784 52.6468 30.035 52.6463 29.982C52.6444 29.8 54.7532 24.1656 54.8233 24.1656C54.8618 24.1656 55.3103 25.4251 55.8199 26.9644ZM132.405 26.9971C131.371 27.308 130.89 28.4832 131.376 29.5107C131.791 30.3898 132.976 30.7297 133.821 30.2126C135.049 29.4613 134.973 27.7561 133.684 27.1297C133.094 26.8433 132.962 26.8296 132.405 26.9971ZM133.492 27.5804C133.713 27.6949 133.961 27.9769 134.068 28.2341C134.598 29.5049 133.029 30.5498 132.057 29.5742C131.445 28.9606 131.619 27.8931 132.384 27.5585C132.891 27.3369 133.028 27.3396 133.492 27.5804Z"/>
</mask>
<path fill-rule="evenodd" clip-rule="evenodd" d="M0 29.5V59H150H300V29.5V0H150H0V29.5ZM299.488 29.5V58.4858H150H0.512383V29.5V0.514161H150H299.488V29.5ZM147.592 23.1276C144.757 24.1806 143.378 27.435 144.32 30.8497C144.784 32.5342 145.879 33.8918 147.31 34.5587C147.927 34.8461 148.189 34.8876 149.424 34.8928C150.754 34.8983 150.879 34.8759 151.665 34.4887C152.123 34.2632 152.618 33.9723 152.765 33.8422C153.68 33.0341 154.489 31.3521 154.087 31.0966C153.636 30.8098 153.384 30.9641 153.073 31.7167C152.66 32.7147 151.793 33.5716 150.889 33.8731C147.635 34.9587 144.808 32.3297 145.04 28.4331C145.12 27.0981 145.248 26.6382 145.803 25.7108C146.293 24.889 147.236 24.1298 148.066 23.8877C148.827 23.6656 150.196 23.6699 150.769 23.8962C151.909 24.3475 152.674 25.1532 152.985 26.2312C153.132 26.7392 153.19 26.8007 153.528 26.8007H153.907L153.943 25.0831C153.98 23.297 153.911 23.0087 153.447 23.0087C153.146 23.0087 152.946 23.3838 152.946 23.9473V24.3887L152.504 23.9703C151.703 23.2117 150.988 22.9559 149.552 22.9133C148.527 22.8829 148.135 22.9258 147.592 23.1276ZM161.238 23.184C159.198 24.0458 158.097 25.8505 157.974 28.5375C157.844 31.3491 158.953 33.5587 160.976 34.5187C162.008 35.0086 163.589 35.1017 164.624 34.7336C166.822 33.9529 168.029 32.0978 168.158 29.3056C168.285 26.5388 167.285 24.4323 165.349 23.3895C164.608 22.9903 164.43 22.9498 163.258 22.9126C162.135 22.8768 161.886 22.9104 161.238 23.184ZM220.282 23.1875C218.892 23.7743 218.135 24.4607 217.504 25.7081C217.051 26.6032 216.869 27.4671 216.867 28.7339C216.863 32.4629 219.025 34.963 222.256 34.963C224.184 34.963 225.782 34.0604 226.575 32.5217C227.087 31.5307 227.084 31.0613 226.566 31.0015C226.246 30.9646 226.18 31.0301 225.901 31.6636C224.921 33.8873 222.572 34.7381 220.368 33.6677C218.401 32.7122 217.34 29.9008 217.956 27.2787C218.325 25.7068 219.124 24.6693 220.434 24.0597C221.021 23.7863 221.35 23.7224 222.182 23.7199C223.956 23.7147 225.14 24.52 225.728 26.1325C225.973 26.8034 226.033 26.8743 226.333 26.8395L226.665 26.8007V24.9368V23.073H226.281C225.907 23.073 225.896 23.0915 225.858 23.7564L225.819 24.4399L225.297 23.9669C224.452 23.2013 223.778 22.9639 222.31 22.9148C221.181 22.877 220.941 22.9092 220.282 23.1875ZM20.2907 23.1875C20.1181 23.6393 20.3244 23.7672 21.2896 23.8063L22.2246 23.8442L22.2582 28.8894L22.2916 33.9346H21.281C20.1484 33.9346 19.8533 34.094 20.1067 34.5691C20.2439 34.8265 20.3457 34.8344 23.4944 34.8344C26.3 34.8344 26.7635 34.8068 26.9091 34.6308C27.0311 34.4832 27.0403 34.3683 26.943 34.2131C26.8296 34.0326 26.523 33.9933 24.9939 33.9632L23.1793 33.9276L23.2144 31.7137L23.2494 29.5L25.2592 29.4225C27.1067 29.3512 27.327 29.3164 27.9877 28.992C28.4494 28.7654 28.8165 28.4713 29.0139 28.1699C29.8896 26.8332 29.6499 24.7146 28.5257 23.8543C27.6338 23.1716 27.221 23.1023 23.667 23.0393C20.7213 22.987 20.3614 23.0028 20.2907 23.1875ZM34.0869 23.1852C33.8035 23.5279 34.0599 23.7652 34.7572 23.8058L35.4184 23.8442L35.452 28.8894L35.4854 33.9346H34.804C33.9812 33.9346 33.5515 34.1845 33.767 34.5376C33.893 34.7441 34.1441 34.7743 36.0087 34.8069C38.3795 34.8483 38.6849 34.8081 38.6849 34.4539C38.6849 34.0805 38.455 33.9989 37.4039 33.9989H36.4432L36.4082 31.6531L36.3734 29.3072H37.903C38.7442 29.3072 39.5124 29.2765 39.6101 29.2388C39.7405 29.1885 40.0158 29.777 40.6473 31.4561C41.1201 32.7133 41.5061 33.8142 41.505 33.9025C41.5039 33.9953 41.3389 34.0632 41.1147 34.0632C40.6772 34.0632 40.4913 34.3476 40.7358 34.6433C40.8585 34.7917 41.2122 34.834 42.3192 34.8325C43.8351 34.8303 44.1173 34.7546 44.0444 34.3691C44.0083 34.1784 43.853 34.114 43.3068 34.0632L42.6151 33.9989L41.612 31.5566C41.0603 30.2134 40.6084 29.078 40.6076 29.0335C40.607 28.9892 40.7778 28.8815 40.9874 28.7943C41.5117 28.5764 42.3323 27.6521 42.5269 27.0603C42.7377 26.4195 42.6279 25.2523 42.2955 24.5982C41.9408 23.9007 41.2148 23.4284 40.1481 23.2017C38.9246 22.9416 34.2988 22.929 34.0869 23.1852ZM51.3798 23.1852C51.2995 23.2824 51.2698 23.4559 51.3138 23.5708C51.3802 23.7446 51.6095 23.78 52.6696 23.78C53.8267 23.78 53.9389 23.8009 53.8737 24.0049C53.8341 24.1287 52.9705 26.399 51.9544 29.0501L50.107 33.8704L49.53 33.9092C48.8421 33.9553 48.5928 34.1807 48.8001 34.5691C48.9336 34.8195 49.0523 34.8344 50.9134 34.8344C52.5341 34.8344 52.921 34.7986 53.0863 34.6327C53.238 34.4804 53.2549 34.3701 53.155 34.1829C53.0426 33.9723 52.8802 33.9346 52.0833 33.9346H51.144L51.6903 32.4243L52.2366 30.9139H54.6977H57.1587L57.6558 32.3279C57.9293 33.1056 58.1536 33.7828 58.1543 33.8331C58.1549 33.8832 57.686 33.9411 57.1121 33.9616C56.3056 33.9904 56.0384 34.0475 55.9346 34.2131C55.8375 34.3682 55.847 34.4834 55.9688 34.6308C56.2175 34.9315 60.0885 34.9329 60.388 34.6325C60.7772 34.2419 60.5035 33.9355 59.763 33.9327L59.2442 33.9307L57.4027 28.6947C56.39 25.8149 55.4732 23.3574 55.3654 23.2337C55.196 23.0392 54.9227 23.0087 53.3476 23.0087C51.9593 23.0087 51.4911 23.0507 51.3798 23.1852ZM64.9615 23.181C64.6545 23.5521 64.9269 23.7663 65.7566 23.8063L66.5457 23.8442L66.5792 28.8835L66.6127 33.9228L65.7599 33.9609C64.8188 34.0029 64.4833 34.2389 64.8074 34.6308C64.9477 34.8004 65.3002 34.834 66.9136 34.8325C67.9795 34.8313 68.9285 34.7815 69.0227 34.7216C69.1169 34.6615 69.1746 34.4745 69.1508 34.3057C69.1112 34.0246 69.0405 33.9957 68.307 33.9606L67.5064 33.9224L67.5102 29.4617C67.5128 26.5261 67.5565 25.0738 67.6381 25.2141C67.7062 25.3312 68.3139 26.6616 68.9885 28.1705C70.25 30.9922 70.465 31.3638 70.8369 31.3638C71.2202 31.3638 71.4542 30.9471 72.7551 27.9475L74.0331 25.0011L74.0362 29.4617L74.0393 33.9224L73.252 33.9606C72.3775 34.0032 72.0505 34.2503 72.3651 34.6308C72.6133 34.931 76.357 34.9325 76.6559 34.6327C76.8076 34.4804 76.8245 34.3701 76.7245 34.1829C76.6164 33.9801 76.452 33.9346 75.8281 33.9346H75.064V28.8573V23.78H75.7529C76.5379 23.78 76.8827 23.542 76.5976 23.1973C76.4669 23.0393 76.18 23.0074 75.1519 23.0366L73.8692 23.073L72.3861 26.506C71.5704 28.3942 70.8624 29.8981 70.8128 29.8481C70.7631 29.7981 70.0401 28.2532 69.206 26.415L67.6895 23.073L66.4002 23.0366C65.4143 23.0087 65.0759 23.0426 64.9615 23.181ZM83.788 23.1852C83.7077 23.2824 83.678 23.4559 83.722 23.5708C83.7884 23.7446 84.0177 23.78 85.0778 23.78C86.3393 23.78 86.3527 23.7832 86.2631 24.0666C86.2132 24.2242 85.3515 26.4946 84.3483 29.1118L82.5242 33.8704L81.9236 33.9416C81.2663 34.0195 81.033 34.2404 81.2261 34.6025C81.3373 34.811 81.5544 34.8344 83.3791 34.8344C85.0745 34.8344 85.4361 34.8009 85.5769 34.6308C85.6987 34.4835 85.7081 34.3681 85.6111 34.2131C85.5105 34.0525 85.2479 33.9894 84.5617 33.9611C84.0583 33.9404 83.6459 33.8826 83.6454 33.8326C83.6448 33.7827 83.8821 33.0899 84.1728 32.2931L84.7012 30.8443L87.1404 30.8791L89.5797 30.9139L90.0649 32.2636C90.3318 33.0059 90.5531 33.6832 90.5568 33.7688C90.5614 33.8753 90.2352 33.9361 89.5203 33.9616C88.7138 33.9904 88.4466 34.0475 88.3428 34.2131C88.2457 34.3682 88.2552 34.4834 88.377 34.6308C88.6274 34.9337 92.6279 34.9337 92.8783 34.6308C93.1458 34.3074 92.8635 34.0086 92.2204 33.9346L91.6615 33.8704L89.8474 28.7288C88.8496 25.9009 87.937 23.4571 87.8193 23.2979C87.6149 23.0214 87.5247 23.0087 85.7698 23.0087C84.3696 23.0087 83.8993 23.0506 83.788 23.1852ZM96.2162 23.1817C96.1344 23.2807 96.1032 23.4559 96.1473 23.5708C96.2111 23.7379 96.4178 23.78 97.1742 23.78H98.1213V28.8573V33.9346H97.4913C97.1448 33.9346 96.7701 33.9697 96.6587 34.0127C96.3959 34.1138 96.3959 34.6552 96.6587 34.7564C96.9689 34.8759 100.596 34.8452 100.79 34.7216C100.885 34.6615 100.942 34.4745 100.918 34.3057C100.879 34.0214 100.812 33.9961 100.011 33.9609L99.146 33.9229L99.1465 28.9478C99.1469 24.0941 99.1527 23.9822 99.3783 24.3584C99.5056 24.5705 100.785 27.0162 102.222 29.7932C104.402 34.0074 104.886 34.8555 105.148 34.9217C105.795 35.0846 105.807 34.9794 105.807 29.1541V23.78H106.44C107.123 23.78 107.279 23.6662 107.151 23.2616C107.072 23.0139 106.977 23.004 104.997 23.0378L102.925 23.073V23.3943C102.925 23.7041 102.958 23.7171 103.854 23.7535L104.782 23.7913L104.78 28.3167L104.778 32.842L102.297 27.9575L99.8156 23.073L98.0904 23.0374C96.7345 23.0094 96.3332 23.0402 96.2162 23.1817ZM112.899 23.2015C112.714 23.6842 112.928 23.78 114.193 23.78C114.865 23.78 115.416 23.8234 115.418 23.8764C115.42 23.9293 114.57 26.2131 113.528 28.9513L111.635 33.9299L111.165 33.9322C110.907 33.9336 110.604 33.9697 110.493 34.0127C110.23 34.1138 110.23 34.6552 110.493 34.7564C110.604 34.7993 111.548 34.8344 112.591 34.8344C114.164 34.8344 114.515 34.7998 114.655 34.6308C114.776 34.4835 114.786 34.3681 114.689 34.2131C114.588 34.052 114.325 33.9895 113.628 33.9609C112.974 33.9341 112.717 33.8773 112.754 33.7681C112.783 33.683 113.031 32.9903 113.305 32.2288L113.804 30.8443L116.24 30.8791L118.676 30.9139L119.204 32.3922L119.733 33.8704L118.674 33.9074C117.498 33.9484 117.212 34.1047 117.459 34.5691C117.593 34.8205 117.71 34.8344 119.694 34.8344C121.448 34.8344 121.815 34.8014 121.956 34.6308C122.223 34.3083 121.943 34.0053 121.337 33.96C120.992 33.9341 120.788 33.8474 120.731 33.7029C120.684 33.583 119.866 31.2867 118.913 28.6002C117.129 23.5694 117.011 23.2672 116.772 23.107C116.694 23.0551 115.808 23.0118 114.802 23.0106C113.293 23.0091 112.959 23.0425 112.899 23.2015ZM171.823 23.2015C171.641 23.6774 171.852 23.7697 173.212 23.8076L174.53 23.8442L174.564 28.8894L174.597 33.9346H173.132C171.971 33.9346 171.625 33.9765 171.465 34.1363C171.314 34.2886 171.297 34.3989 171.397 34.5862C171.524 34.8247 171.717 34.8344 176.308 34.8344C180.909 34.8344 181.096 34.8249 181.317 34.5798C181.494 34.3841 181.587 33.9026 181.719 32.501C181.898 30.5935 181.859 30.3355 181.383 30.3355C180.999 30.3355 180.894 30.6144 180.69 32.1787C180.581 33.0122 180.458 33.7484 180.418 33.8145C180.376 33.8822 179.284 33.9346 177.917 33.9346H175.491V28.8573V23.78H176.456C177.473 23.78 177.751 23.6111 177.411 23.1999C177.175 22.9139 171.932 22.9154 171.823 23.2015ZM186.81 23.2015C186.623 23.6893 186.836 23.78 188.169 23.78H189.453V28.8532V33.9265L187.962 33.9627C186.735 33.9925 186.447 34.037 186.336 34.2131C186.239 34.3683 186.248 34.4832 186.37 34.6308C186.518 34.8099 187.113 34.8344 191.307 34.8344C195.767 34.8344 196.088 34.8193 196.287 34.5988C196.441 34.4282 196.548 33.8701 196.676 32.5765C196.773 31.5937 196.825 30.7186 196.792 30.6317C196.695 30.3783 196.233 30.2901 196.036 30.4874C195.933 30.5907 195.774 31.3102 195.658 32.1966C195.548 33.0386 195.43 33.7741 195.395 33.831C195.359 33.888 194.239 33.9346 192.904 33.9346H190.478V28.8573V23.78H191.425C192.182 23.78 192.388 23.7379 192.452 23.5708C192.646 23.0642 192.36 23.0087 189.562 23.0087C187.299 23.0087 186.872 23.0387 186.81 23.2015ZM202.02 23.1852C201.708 23.5629 201.991 23.767 202.883 23.8064L203.736 23.8442L203.77 28.8894L203.803 33.9346L202.873 33.9366C201.806 33.9389 201.583 34.0343 201.643 34.4633L201.687 34.7702L206.64 34.8038C211.016 34.8335 211.616 34.8137 211.796 34.6339C212.091 34.3379 212.092 31.4761 211.797 31.1802C211.32 30.702 211.135 31.049 211.027 32.6208L210.937 33.9346H207.814H204.691L204.726 31.4602L204.761 28.9858L206.382 28.95L208.002 28.9141L208.111 29.8498C208.213 30.733 208.237 30.7854 208.54 30.7854H208.86V28.6645V26.5436H208.54C208.241 26.5436 208.212 26.601 208.108 27.4149L207.996 28.2863L206.379 28.2505L204.761 28.2146V26.0294V23.8442L207.786 23.8098L210.811 23.7753L210.891 24.2597C210.935 24.526 210.971 25.0944 210.972 25.5228C210.974 26.4436 211.207 26.8838 211.574 26.6584C211.774 26.5357 211.811 26.2986 211.842 24.9412C211.866 23.89 211.829 23.3068 211.73 23.1875C211.513 22.9244 202.238 22.9222 202.02 23.1852ZM232.196 23.0929C232.148 23.1409 232.109 24.0109 232.109 25.0265C232.109 26.6175 232.138 26.8842 232.319 26.9537C232.803 27.14 232.938 26.8347 233.022 25.3733C233.066 24.603 233.109 23.9293 233.118 23.8764C233.127 23.8234 233.912 23.78 234.863 23.78H236.593V28.8529V33.9259L235.229 33.9624C234.123 33.9921 233.841 34.0393 233.731 34.2131C233.634 34.3683 233.644 34.4832 233.766 34.6308C233.911 34.8064 234.359 34.8342 237.025 34.8325C238.725 34.8313 240.192 34.7815 240.287 34.7216C240.381 34.6615 240.438 34.4745 240.415 34.3057C240.373 34.0068 240.336 33.998 238.994 33.9624L237.617 33.9259V28.8529V23.78H239.333C240.779 23.78 241.061 23.8118 241.126 23.9833C241.169 24.0951 241.204 24.7488 241.204 25.4358C241.204 26.7225 241.297 26.9935 241.74 26.9935C242.064 26.9935 242.116 26.6429 242.074 24.744L242.037 23.073L237.16 23.0393C234.478 23.0208 232.244 23.045 232.196 23.0929ZM246.471 23.1834C246.39 23.2815 246.359 23.4559 246.403 23.5708C246.472 23.7496 246.733 23.78 248.199 23.78H249.915V28.8573V33.9346H248.265C246.462 33.9346 246.168 34.0375 246.452 34.5691C246.59 34.8277 246.686 34.8344 250.288 34.8344C253.502 34.8344 254.004 34.8079 254.151 34.6308C254.273 34.4832 254.282 34.3683 254.185 34.2131C254.073 34.0359 253.781 33.9926 252.495 33.9628L250.939 33.9267V28.8572V23.7877L252.573 23.7517L254.206 23.7157V23.3943V23.073L250.412 23.0389C247.302 23.011 246.592 23.0371 246.471 23.1834ZM257.87 23.1852C257.579 23.5371 257.843 23.7658 258.587 23.8061L259.294 23.8442L259.93 25.8366C262.78 34.7545 262.855 34.9699 263.185 35.1208C263.452 35.2424 263.543 35.2257 263.744 35.0182C263.894 34.8636 264.573 32.7857 265.546 29.5C266.405 26.6014 267.161 24.1287 267.226 24.0049C267.311 23.8433 267.502 23.78 267.903 23.78C268.504 23.78 268.752 23.5198 268.472 23.1819C268.355 23.0397 267.932 23.0095 266.453 23.0375L264.582 23.073V23.3943C264.582 23.6994 264.623 23.7176 265.395 23.7542C266.089 23.7873 266.2 23.8251 266.15 24.0113C265.516 26.3301 263.446 33.5448 263.422 33.5195C263.368 33.463 260.418 24.0035 260.418 23.8868C260.418 23.828 260.787 23.78 261.237 23.78C261.876 23.78 262.074 23.7338 262.136 23.5708C262.32 23.0898 262.008 23.0087 259.97 23.0087C258.47 23.0087 257.982 23.0497 257.87 23.1852ZM271.948 23.1999C271.631 23.5832 271.89 23.7659 272.805 23.8061L273.676 23.8442L273.71 28.8894L273.743 33.9346H272.806C271.725 33.9346 271.273 34.1453 271.513 34.5376C271.645 34.7545 271.986 34.7725 276.557 34.8038C280.07 34.828 281.51 34.7961 281.635 34.6917C281.905 34.4669 281.885 31.3286 281.612 31.1014C281.448 30.9651 281.377 30.972 281.208 31.1416C281.058 31.2926 280.987 31.6899 280.942 32.6409L280.88 33.9346H277.758H274.637V31.4281V28.9216H276.242C277.416 28.9216 277.86 28.9648 277.895 29.0822C277.921 29.1707 277.991 29.5896 278.051 30.0133C278.136 30.6152 278.212 30.7936 278.4 30.8294C278.533 30.8544 278.691 30.797 278.751 30.7016C278.875 30.5053 278.906 26.995 278.786 26.6827C278.688 26.424 278.239 26.4175 278.141 26.6733C278.101 26.7798 278.031 27.1703 277.985 27.5409L277.904 28.2146L276.27 28.2506L274.637 28.2866V26.0333V23.78H277.693H280.749L280.831 24.5701C280.877 25.0046 280.914 25.6003 280.914 25.8941C280.914 26.6488 281.217 26.928 281.609 26.5344C281.768 26.3753 281.81 26.0325 281.81 24.9192C281.81 24.1419 281.751 23.3941 281.678 23.2573C281.55 23.0185 281.361 23.0087 276.826 23.0087C272.805 23.0087 272.083 23.037 271.948 23.1999ZM164.624 24.0046C165.485 24.3869 166.086 24.9918 166.571 25.966C167.943 28.718 167.194 32.3562 165.002 33.5907C164.052 34.1255 162.695 34.2146 161.631 33.812C159.304 32.9306 158.228 29.4553 159.351 26.444C160.205 24.1529 162.532 23.0763 164.624 24.0046ZM27.0047 24.1062C28.0184 24.4083 28.5653 25.1745 28.5653 26.2923C28.5653 27.2095 28.2378 27.849 27.5657 28.2443C27.0184 28.566 26.8595 28.5916 25.0832 28.6423L23.1853 28.6964V26.3238C23.1853 25.019 23.2286 23.9063 23.2814 23.8512C23.4257 23.7006 26.3057 23.898 27.0047 24.1062ZM39.3152 23.9148C40.5676 24.0724 41.038 24.2835 41.3743 24.8382C42.0854 26.0115 41.7105 27.5553 40.5739 28.133C40.043 28.4029 39.7358 28.4507 38.1721 28.5072L36.3792 28.5719V26.2617C36.3792 24.9909 36.4176 23.9127 36.4646 23.8657C36.5932 23.7365 38.1059 23.7627 39.3152 23.9148ZM89.1516 29.9178C89.1538 30.0397 88.6609 30.0784 87.105 30.0784C85.9778 30.0784 85.0555 30.0396 85.0555 29.9923C85.0555 29.9175 86.788 25.1774 87.1381 24.2941C87.2489 24.0147 87.3883 24.3498 88.207 26.8649C88.7249 28.4556 89.15 29.8294 89.1516 29.9178ZM118.271 29.982C118.242 30.035 117.33 30.0784 116.247 30.0784C115.163 30.0784 114.252 30.035 114.222 29.982C114.193 29.9291 114.661 28.5588 115.264 26.9373L116.359 23.989L117.342 26.9373C117.883 28.5588 118.301 29.9291 118.271 29.982ZM55.8199 26.9644C56.3294 28.5038 56.7464 29.8342 56.7464 29.9208C56.7464 30.0387 56.2292 30.0784 54.6968 30.0784C53.5696 30.0784 52.6468 30.035 52.6463 29.982C52.6444 29.8 54.7532 24.1656 54.8233 24.1656C54.8618 24.1656 55.3103 25.4251 55.8199 26.9644ZM132.405 26.9971C131.371 27.308 130.89 28.4832 131.376 29.5107C131.791 30.3898 132.976 30.7297 133.821 30.2126C135.049 29.4613 134.973 27.7561 133.684 27.1297C133.094 26.8433 132.962 26.8296 132.405 26.9971ZM133.492 27.5804C133.713 27.6949 133.961 27.9769 134.068 28.2341C134.598 29.5049 133.029 30.5498 132.057 29.5742C131.445 28.9606 131.619 27.8931 132.384 27.5585C132.891 27.3369 133.028 27.3396 133.492 27.5804Z" stroke="white" stroke-width="8" mask="url(#path-1-inside-1)"/>
</svg>
