<svg viewBox="0 0 642.89 718.4"><defs><style>.cls-1,.cls-18{fill:#fbed24}.cls-1,.cls-10,.cls-11,.cls-12,.cls-13,.cls-14,.cls-15,.cls-16,.cls-17,.cls-19,.cls-2,.cls-20,.cls-21,.cls-22,.cls-23,.cls-24,.cls-25,.cls-26,.cls-27,.cls-3,.cls-4,.cls-5,.cls-6,.cls-7,.cls-8,.cls-9{stroke:#030303;stroke-miterlimit:10;stroke-width:.75px}.cls-1,.cls-21{stroke-dasharray:12}.cls-10,.cls-11,.cls-12,.cls-13,.cls-14,.cls-15,.cls-16,.cls-17,.cls-19,.cls-2,.cls-20,.cls-21,.cls-22,.cls-23,.cls-24,.cls-25,.cls-26,.cls-27,.cls-3,.cls-4,.cls-5,.cls-6,.cls-7,.cls-8,.cls-9{fill:none}.cls-3{stroke-dasharray:11.87 11.87}.cls-4{stroke-dasharray:11.91 11.91}.cls-5{stroke-dasharray:11.69 11.69}.cls-6{stroke-dasharray:12.53 12.53}.cls-7{stroke-dasharray:11.47 11.47}.cls-8{stroke-dasharray:11.87 11.87}.cls-9{stroke-dasharray:12.63 12.63}.cls-10{stroke-dasharray:12.64 12.64}.cls-11{stroke-dasharray:11.72 11.72}.cls-12{stroke-dasharray:11.39 11.39}.cls-13{stroke-dasharray:12.15 12.15}.cls-14{stroke-dasharray:11.61 11.61}.cls-15{stroke-dasharray:12.68 12.68}.cls-16{stroke-dasharray:11.53 11.53}.cls-17{stroke-dasharray:12.11 12.11}.cls-19{stroke-dasharray:11.85 11.85}.cls-20{stroke-dasharray:11.89 11.89}.cls-22{stroke-dasharray:10.62 10.62}.cls-23{stroke-dasharray:7.43 7.43}.cls-24{stroke-dasharray:11.48 11.48}.cls-25{stroke-dasharray:11.93 11.93}.cls-26{stroke-dasharray:11.23 11.23}.cls-27{stroke-dasharray:11.61 11.61}</style></defs><title>Diamond</title><path class="cls-1" d="M383.98 142.23l-224.52 32.42 39.68 45.85 279.66-29.45-94.82-48.82z"/><path class="cls-2" d="M165.4 173.79l-5.94.86 5.33 2.76"/><path class="cls-3" d="M175.33 182.86l72.68 37.64 218.95-27.94"/><path class="cls-2" d="M472.85 191.81l5.95-.76-5.33-2.74"/><path class="cls-4" d="M462.88 182.86l-78.9-40.63-212.69 30.71"/><path class="cls-2" d="M92.97 388.57l-1.78 5.73 4.01-4.45"/><path class="cls-5" d="M103.04 381.17l137.03-151.88"/><path class="cls-2" d="M243.99 224.95l4.02-4.45-5.33-2.76"/><path class="cls-6" d="M231.55 211.98l-61.2-31.69"/><path class="cls-2" d="M164.79 177.41l-5.33-2.76-1.78 5.73"/><path class="cls-7" d="M154.28 191.33L94.67 383.09"/><path class="cls-2" d="M1.35 347.78l5.95-.75"/><path class="cls-8" d="M19.09 345.55l434.46-54.69 177.43 86.47"/><path class="cls-2" d="M636.31 379.94l5.4 2.62M237.51 312.46l2.96 5.22 3.8-4.64"/><path class="cls-9" d="M252.26 303.26l123.93-151.5"/><path class="cls-2" d="M380.18 146.88l3.8-4.65-5.93.86"/><path class="cls-10" d="M365.54 144.9l-193.88 27.99"/><path class="cls-2" d="M165.4 173.79l-5.94.86 2.96 5.22"/><path class="cls-11" d="M168.2 190.07l66.42 117.29"/><path class="cls-2" d="M327.49 361.28l-5.96.67 1.64-5.77"/><path class="cls-12" d="M326.28 345.22l54.51-191.74"/><path class="cls-2" d="M382.34 148l1.64-5.77 2.55 5.44"/><path class="cls-13" d="M391.68 158.67l61.87 132.19L391.09 494"/><path class="cls-2" d="M389.3 499.81l-1.76 5.74 4.13-4.36"/><path class="cls-14" d="M399.66 492.77l139.85-147.49"/><path class="cls-2" d="M543.5 341.07l4.13-4.36-5.96.67"/><path class="cls-15" d="M529.07 338.78l-195.28 21.8"/><path class="cls-2" d="M95.07 398.87l-3.88-4.57 2.65 5.38"/><path class="cls-16" d="M98.94 410.02l60.52 122.75 78.1 40.44"/><path class="cls-2" d="M242.68 575.86l5.33 2.76-3.89-4.57"/><path class="cls-17" d="M236.27 564.83L99 403.48"/><path class="cls-18" d="M91.19 394.3l68.27 138.47 88.55 45.85L91.19 394.3z"/><path class="cls-2" d="M95.07 398.87l-3.88-4.57 2.65 5.38"/><path class="cls-16" d="M98.94 410.02l60.52 122.75 78.1 40.44"/><path class="cls-2" d="M242.68 575.86l5.33 2.76-3.89-4.57"/><path class="cls-17" d="M236.27 564.83L99 403.48"/><path class="cls-2" d="M473.68 550.85l5.96-.69-5.4-2.61"/><path class="cls-19" d="M463.57 542.38l-76.03-36.83-216.23 25.81"/><path class="cls-2" d="M165.42 532.06l-5.96.71 5.33 2.76"/><path class="cls-20" d="M175.35 541l72.66 37.62 117.81-15.35 101.95-11.74"/><path class="cls-21" d="M383.98 142.23l163.65 194.48-68.83-145.66-94.82-48.82zM479.64 550.16l67.99-213.45"/><path class="cls-2" d="M414.19 418.88l-3.87-4.58"/><path class="cls-22" d="M403.46 406.18l-51.41-60.83"/><path class="cls-2" d="M348.63 341.29l-3.88-4.58-4.06 4.42"/><path class="cls-23" d="M335.66 346.6l-7.55 8.2"/><path class="cls-2" d="M325.59 357.53l-4.06 4.42-5.27-2.88"/><path class="cls-24" d="M306.19 353.57l-55.42-30.26"/><path class="cls-2" d="M245.73 320.56l-5.26-2.88 3.7 4.72"/><path class="cls-25" d="M251.52 331.8l128.65 164.33"/><path class="cls-2" d="M383.84 500.82l3.7 4.73-2.5-5.45"/><path class="cls-26" d="M380.34 489.89L326.38 372.5"/><path class="cls-2" d="M324.04 367.4l-2.51-5.45-5.94.83"/><path class="cls-27" d="M304.09 364.4l-201.21 28.26"/><path class="cls-2" d="M97.13 393.47l-5.94.83"/><path class="cls-21" d="M317.58 717.76l69.96-212.21"/><path class="cls-1" d="M248.01 578.62l73.52-216.67 92.66 56.93 65.45 131.28-231.63 28.46z"/><path class="cls-2" d="M317.76 1.51L178.62 439.49l463.27-56.93L317.76 1.51z"/><path class="cls-2" d="M1.53 347.78L317.76 1.51 178.62 439.49 1.53 347.78z"/><path class="cls-2" d="M317.08 716.97L1.53 347.78l177.09 91.71 138.67 277.34a.13.13 0 0 1-.21.14z"/><path class="cls-2" d="M641.89 382.56l-324.13 335.2-139.14-278.27 463.27-56.93z"/></svg>