<svg width="66" height="65" viewBox="0 0 66 65" fill="none" xmlns="http://www.w3.org/2000/svg"><path fill-rule="evenodd" clip-rule="evenodd" d="M56.702 63.003c4.493 0 8.136-3.546 8.136-7.92 0-4.372-3.643-7.918-8.136-7.918-4.493 0-8.136 3.546-8.136 7.919 0 4.373 3.643 7.919 8.136 7.919z" stroke="#092290" stroke-width="2"/><path fill-rule="evenodd" clip-rule="evenodd" d="M32.772 39.997c4.493 0 8.136-3.546 8.136-7.92 0-4.373-3.643-7.918-8.136-7.918-4.493 0-8.136 3.545-8.136 7.919 0 4.373 3.643 7.919 8.136 7.919z" fill="#092290"/><path fill-rule="evenodd" clip-rule="evenodd" d="M9.136 16.99c4.493 0 8.135-3.545 8.135-7.918 0-4.374-3.642-7.919-8.135-7.919C4.642 1.153 1 4.698 1 9.072c0 4.373 3.642 7.919 8.136 7.919z" stroke="#092290" stroke-width="2"/></svg>