<svg width="66" height="62" viewBox="0 0 66 62" fill="none" xmlns="http://www.w3.org/2000/svg"><path fill-rule="evenodd" clip-rule="evenodd" d="M50.785 18.461c4.97 0 9-3.909 9-8.73 0-4.822-4.03-8.731-9-8.731s-9 3.909-9 8.73c0 4.822 4.03 8.731 9 8.731zM10.785 18.461c4.97 0 9-3.909 9-8.73 0-4.822-4.03-8.731-9-8.731s-9 3.909-9 8.73c0 4.822 4.03 8.731 9 8.731zM10.785 60.174c4.97 0 9-3.91 9-8.73 0-4.823-4.03-8.731-9-8.731s-9 3.908-9 8.73c0 4.822 4.03 8.73 9 8.73zM43.785 42.713v16.49l19-16.49h-19z" stroke="#092290" stroke-width="2"/></svg>