<svg width="66" height="65" viewBox="0 0 66 65" fill="none" xmlns="http://www.w3.org/2000/svg">
<path fill-rule="evenodd" clip-rule="evenodd" d="M56.7021 63.0027C61.1953 63.0027 64.8378 59.4573 64.8378 55.0839C64.8378 50.7105 61.1953 47.1652 56.7021 47.1652C52.2089 47.1652 48.5664 50.7105 48.5664 55.0839C48.5664 59.4573 52.2089 63.0027 56.7021 63.0027Z" stroke="#092290" stroke-width="2"/>
<path fill-rule="evenodd" clip-rule="evenodd" d="M32.7721 39.9966C37.2653 39.9966 40.9078 36.4513 40.9078 32.0779C40.9078 27.7044 37.2653 24.1591 32.7721 24.1591C28.2788 24.1591 24.6364 27.7044 24.6364 32.0779C24.6364 36.4513 28.2788 39.9966 32.7721 39.9966Z" fill="#092290"/>
<path fill-rule="evenodd" clip-rule="evenodd" d="M9.1357 16.9905C13.6289 16.9905 17.2714 13.4452 17.2714 9.07179C17.2714 4.69838 13.6289 1.15304 9.1357 1.15304C4.64248 1.15304 1 4.69838 1 9.07179C1 13.4452 4.64248 16.9905 9.1357 16.9905Z" stroke="#092290" stroke-width="2"/>
</svg>
