<svg width="66" height="62" viewBox="0 0 66 62" fill="none" xmlns="http://www.w3.org/2000/svg">
<path fill-rule="evenodd" clip-rule="evenodd" d="M50.7847 18.4611C55.7553 18.4611 59.7847 14.5523 59.7847 9.73054C59.7847 4.9088 55.7553 1 50.7847 1C45.8142 1 41.7847 4.9088 41.7847 9.73054C41.7847 14.5523 45.8142 18.4611 50.7847 18.4611Z" stroke="#092290" stroke-width="2"/>
<path fill-rule="evenodd" clip-rule="evenodd" d="M10.7847 18.4611C15.7553 18.4611 19.7847 14.5523 19.7847 9.73054C19.7847 4.9088 15.7553 1 10.7847 1C5.81417 1 1.78473 4.9088 1.78473 9.73054C1.78473 14.5523 5.81417 18.4611 10.7847 18.4611Z" stroke="#092290" stroke-width="2"/>
<path fill-rule="evenodd" clip-rule="evenodd" d="M10.7847 60.1737C15.7553 60.1737 19.7847 56.2649 19.7847 51.4431C19.7847 46.6214 15.7553 42.7126 10.7847 42.7126C5.81417 42.7126 1.78473 46.6214 1.78473 51.4431C1.78473 56.2649 5.81417 60.1737 10.7847 60.1737Z" stroke="#092290" stroke-width="2"/>
<path fill-rule="evenodd" clip-rule="evenodd" d="M43.7847 42.7126V59.2036L62.7847 42.7126L43.7847 42.7126Z" stroke="#092290" stroke-width="2"/>
</svg>
